<mxfile host="Electron" agent="Mozilla/5.0 (X11; Linux x86_64) AppleWebKit/537.36 (KHTML, like Gecko) draw.io/27.0.9 Chrome/134.0.6998.205 Electron/35.4.0 Safari/537.36" version="27.0.9">
  <diagram name="PÃ¡gina-1" id="c5S2qcEETMrbcxesgxMn">
    <mxGraphModel dx="1426" dy="875" grid="1" gridSize="10" guides="1" tooltips="1" connect="1" arrows="1" fold="1" page="1" pageScale="1" pageWidth="827" pageHeight="1169" math="0" shadow="0">
      <root>
        <mxCell id="0" />
        <mxCell id="1" parent="0" />
        <mxCell id="xLYYazq6a6-ILcx5yCei-22" value="" style="group" parent="1" vertex="1" connectable="0">
          <mxGeometry x="260" y="260" width="210" height="60" as="geometry" />
        </mxCell>
        <mxCell id="xLYYazq6a6-ILcx5yCei-20" value="" style="group;fillColor=none;strokeColor=none;fillStyle=solid;container=0;" parent="xLYYazq6a6-ILcx5yCei-22" vertex="1" connectable="0">
          <mxGeometry width="210.00000000000003" height="60" as="geometry" />
        </mxCell>
        <mxCell id="xLYYazq6a6-ILcx5yCei-16" value="" style="rounded=1;whiteSpace=wrap;html=1;arcSize=50;fillColor=#CCE5FF;strokeColor=none;" parent="xLYYazq6a6-ILcx5yCei-22" vertex="1">
          <mxGeometry width="210.00000000000003" height="60" as="geometry" />
        </mxCell>
        <mxCell id="xLYYazq6a6-ILcx5yCei-17" value="" style="ellipse;whiteSpace=wrap;html=1;aspect=fixed;strokeColor=#0066CC;" parent="xLYYazq6a6-ILcx5yCei-22" vertex="1">
          <mxGeometry width="60" height="60" as="geometry" />
        </mxCell>
        <mxCell id="xLYYazq6a6-ILcx5yCei-13" value="" style="editableCssRules=.*;html=1;shape=image;verticalLabelPosition=bottom;labelBackgroundColor=#ffffff;verticalAlign=top;aspect=fixed;imageAspect=0;image=data:image/svg+xml,PHN2ZyB4bWxucz0iaHR0cDovL3d3dy53My5vcmcvMjAwMC9zdmciIHhtbG5zOnY9Imh0dHBzOi8vdmVjdGEuaW8vbmFubyIgd2lkdGg9IjM2NS40NjQ5OTY3NzA0MjQ5MyIgaGVpZ2h0PSIzNzkuMjIyOTk0NDYzNTc3OTUiIHZpZXdCb3g9IjAgMCA5Ni42OTU5OTkxNDU1MDc4MSAxMDAuMzM1OTk4NTM1MTU2MjUiPiYjeGE7PHN0eWxlIHR5cGU9InRleHQvY3NzIj4mI3hhOwkuc3Qwe2ZpbGw6IzQyODVmNDt9JiN4YTsJLnN0MXtmaWxsOiNhZWNiZmE7fSYjeGE7PC9zdHlsZT4mI3hhOwk8cGF0aCBjbGFzcz0ic3QwIiBkPSJNMjkuNzk0IDEwMC4zMzZMNDYuOTIgNTAuMTY4aDQ5Ljc3NnpNMCA5OS42NzFsMTIuOTc2LTQ5LjUwMkgyOS4yMkwxNi44OTcgOTIuMDU0eiIvPiYjeGE7CTxwYXRoIGNsYXNzPSJzdDEiIGQ9Ik0yOS43OTQgMEw0Ni45MiA1MC4xNjhoNDkuNzc2ek0wIC42NjZsMTIuOTc2IDQ5LjUwMkgyOS4yMkwxNi44OTcgOC4yODN6Ii8+JiN4YTs8L3N2Zz4=;" parent="xLYYazq6a6-ILcx5yCei-22" vertex="1">
          <mxGeometry x="22.10526315789474" y="20" width="20" height="20" as="geometry" />
        </mxCell>
        <mxCell id="xLYYazq6a6-ILcx5yCei-21" value="&lt;b&gt;service-orders-api&lt;/b&gt;" style="text;html=1;align=center;verticalAlign=middle;whiteSpace=wrap;rounded=0;fillColor=#CCE5FF;fontColor=#0066CC;" parent="xLYYazq6a6-ILcx5yCei-22" vertex="1">
          <mxGeometry x="77.36842105263159" y="15" width="110.5263157894737" height="30" as="geometry" />
        </mxCell>
        <mxCell id="xLYYazq6a6-ILcx5yCei-23" value="" style="shape=image;verticalLabelPosition=bottom;labelBackgroundColor=default;verticalAlign=top;aspect=fixed;imageAspect=0;image=data:image/webp,UklGRnCGAABXRUJQVlA4TGOGAAAvt8AtEOpg0LaNoCT8WW+7fwgRMQHegOJXqiR4YhgUXBR0P7Qjb3xRGLKJFVqfgAXpRKWUZepAN5QqJU1Je0DQECQIZYiAKtWRajTa6AWlIm2icOEcaXNpIQoWqGKo0Ltnj1DeVLConQro8FfwxjNt/3JJbs5sibXMzMw80NPd7x/ecxpntpeZxdIyibUklpZxts/7/v/vaZienh4SMzMzMzOzdIKded1tin+miCYUmjHvyJEjh3zCjcycucSZy1OTuVrBRGY7Uo1hUsNGZk/YZqY2WzSmaEqZS2TGiQUnMjMIJzRG4jc0dmKc0MXMU85EbWZmJmFm1VS12ZEwWrMt6g02EkSmrY7MdoYdbWbGqerQ0Wam8wneZDMzeyczRrx1PsFGZmZmmNxVXYLIzLYw0ieY6k9gWEeaaEIxS19gZGbmY6ZMmT2JmR12tOGUc5zM1WZbVZR3eaBt27Rt27ZiKbW2jsE5pvf0nMu2bdu2bdu2bdu27bW2bdvdA7Z/hiTZ/xc11nqPR+sdrWZ3sDbGNrqrMt7vd0Rmse05g7Vt27Yx092Zgcxie3jO+dhGWaC2bZnTaJ/3n5lkQoIlRKBBikbrxR3qirtLu7s4dW9xd1jF3a2CS3DS4lqaEHeb/7PfvgnQo23bsjm285aYGVpSt1itFnMLS/VjkZgaBS1sqVvNLbWgxNKStFrMWH/VXyUViJmZmaGlUou5xVjw1xNU1bekVVLHV1LhXuk2jsID8FjWJMx2uDIz5EzjYBjBjs1OOVqhGZTKzHbE09iewT56BGacAc2BIxwAj4KHwJgy21NY81grskPGKWC4RrAOx46Y5sD2qDwEZjvnQazD03C2Q0c79OGUBuAR8AScrbAMQ2DPgkawcuf78IDt//ql/f9dj+fz+Xq9AOlGMXA6u95214y3rUu7u7vQ2YHtwsR2dnfHJJ2FiQjS3Z3eKeD/vz6Jvgs2kD6aQ7q7UTCQE+xuUGrbPzbG6DK4Ewk77mxM7O44WxEEloxuLNJuBL4WaGs7tjeafZ73z582dq2pbdsa27Zt2zaLsW3btu2p0/ibAKzy/7uSJOc1hEUlJOan7j0na7wc9lxYLyK0tvLc27PeoX0KvdVM3b63uh9gDZQpuLOmkCxVJBLsB5A9sJcMkxuapIV8MkU1aLRsF22kTNI1jeR1YSJ5e2mRCxUx0SFWMkUnophiCxwk783agiXv3Z/JJ5OZaNhkPSu67qBlGqRYMy2vlmOKmIgLF8nbErRX3jaVu0hoY6HMQfLeT0TK+2FyKUcPVyyUq5S3aOF5gnVMXnReoJ7gyjHPJmqeQHh0n2GFttDAXnnXeoF8gbVMceWQl9hGymGHFIkWFpK3SUveruEZkCLbdq30OvfnT0ZCzkMMMMe/AnRQrm1bjRg5GA97hFl43kyl/+59XyowUwKN0XQCNHLpP5KZOQ9PtG2btm1t27GjRti2wrbtE7Jt27Ztn2vb5raN2VsttfWBPgHcCKfcZI7jUVBPcS5u1NZOeI6CZfyFwfrqVbSJZb/AJv42xWftMWMNDy+gZUZAi1ai5mMuDY6MEcsuajhORqvOBQBAS52zsfofMZ/1vV/7N7L0L9jEd8+ljfcYiWjhVWz7tQYCZ0rafLxE4pSr7juPretnN5P1i2nGcvbRxuhvfGUs5kNGUPzwUNH5DSSFG2wbqr+LRaVTfvkXR6z9keCz1jgUGN9PKzq3HaP3rsG4G/sFW3326qXnNnAmwt60JduUYgLClfZ+3GDlQKTZwbiCQ/tbF17g1bbBQz90mfvY8htj9/WMZPwfgkRrFOF2md4v0/sUeqtEfz0K1XHY/CUCBj5uHtr9y9fI9wCFWtCrl7BPkj33pEpY0puuugHZ1aC39BrOvHQ1Y+2DXYKjv7+S0WSLwgpF+aiidDWEKbLQNmOUwloyrSSB5AJlYWzOaEtVJ4s2A2/6SfhHOJuhu49XE69SFeHCqWdavcjX3LD7BNV10gRL3b2LNv3fFinD/47Ig6fC6/BDJYMsJYIcThew0GWWNNU8LJMjlJxRCqO40GJCyRjBaMUYyRlLYV2JOlk4+jsOPtDuhxr2NAG9YUPUzWjXLBgwZBODAaMD/ek/fdM6DEpjHm/eYyC5fw6P7Zzw8VQu9aX9JB9Vd/fRet0TxhmNl4zXWz7kQc0nLdR81YPqn8t6s2V+qcy3ZL7mtOaU3junXc7Y18oZzhnGaZaVlcVZzoWcsyZnPYmqDDewps+6Jw48mzZV8hbSdCRZiwgTMKM9azHj+mtA8XWeukKMF+O8BUeBkCaHhNNEcemhbd8JWLD5Fwl0MkvcxRIURjR0k1i1MJpsjvNge2cPRhSGz8/hc9O9XxzloZRP8ET5ES+UP7Ci+KcnspkHNbO3ve1tnPY47XBacpqPn9Oi+C4uZNvgjIhhtBOi/HDurTfaQtMfhHUUmhY1sVuvl2sERACaGjoDMPfhIN4i6i8Zmhlq6DOWwQyphBMtSnaj8Z5PjunhnbcY3OalJjGOY98Hqm6z0Ihfhkeb8eilfSVO3EmTofQ3lTLEXLVMwemkguGXbLFDN4lRz4xdFPNQuy5EF8r39dDqLnFH+n9PlFu8UF3vjWK9Ffk1f8SK/Nrv8nFdLl19DKNDjOEKLRSK12JsWWiYKRY90ZzLhbTY7USqTz0emQhALt+3CKS+k+hHsl4rUI8t8V3GZ+5Iv+eB4m29eX63OhQe0kgVrmnKquFUQ9N9pgmaDlNJIFhhuWrltHZQSJ63fPaj2i/dkiqIi5tlK70qABY/UIwJzJF/8ugpmdQQkoRL2mowGYakqUR4ZFlH5MSwfXpovjuPDxxLC0CBu2MIunUCtu/KukfYPH1yh7zmDeaRSoXJCx7WDIl8VYSB80Uc+nhW+VMj/xEZPpPZlxDAWv/FaPU/uQAAG/nndLLeFaN+jbRUGGpMBLpZQOjhzIBFpOkeKLiQxkVqeNomaQqIDCKZXyTCECbuLzuE8yl0pjgt1psYgpadQ9DLcDx49O3Hmwifu0g0k/GSnzvcqsFE1m7NekOB9j8OUzwR0Qx+vqC+v2sFMN8jJ9Ic/zPbMHx7LeY5LQ3rqMPGmldNg322MtwsA37+EymbTTBgnNnzI4JoKYeSMmsmhgFhsikuEqWTmTIINxHtkOz+OTxZ+4A+jRbr2k8SCDYGeYkG9LB/EzkaMoaJiHWxiGFCprCc04rRHqe8QMGfMrW7QJQ/DW8dbjvrabv90My4yRhl8ClaxMZV6uqRKl7IyDXn6dJuGp33/obGPe4UH8x94Wh8iFDLGSiZDRUNxqw9SgliC2ITkVIG7wj7pY9Wfwu0dm0xQJbvpggvZg0RQVatNGxFJrOmQX3OCgsrr4SxpsJwzjh7Z4IKi2jnSApj5hLh84uQjwIwHAvompXS2nD30T16j5sFLOrp8QbMs/XVmFAlLVHqF4Zk2Z4kMZmKxXWmCEl4N9aq8YXFa4fRsCTdgCLxd0lBSv+WaGWwahiltbKsCIuUC6Ue+y6MCbn05Im50A5Ow4PTHlOyOGp2Hmo6kPaofvJGwLlt0E1iSTsyWM8aS8Ou8hsCNuH9MbKy5qFUjCFUtml2MGlmRcmyMptkZfNA9SEP05u9q5v/FkERb6BXu2me/i5K5n8jC8q5vDIl0x3DJlO42CMnPbKUzZzyyNuTWVOmWRoXisdjtCWzNTKbFxz95xZU/2bGWPWLJtmVh+Q4l9R3lTwr59MT5aaw2GN/i1F3YAClvxgV0kTfV7ewilFma0LZI/NEERJOPP2Kl7VQ/eNJdN/9QVK2U8ANfKzOCbN+VfLSiPZdRAUNT5L4fzLWlUVmOZdVZcMiSSeXlI1OS9t8WWd62RiFZoyVMuvJlCXpfRwsOjZGNb9ooqX7vHr2RfOkxkoiuG4gKvKqcKSG0JLNHkAKQJCAoMixIqj+IdbKi+CyAMIW9TeNJWaFwnoKK5kgNGgq2RQ3DOFPlHFaHLFQde0EWt/V0ChcRewl+cUTFKvgiwSfXiu2dJUgR271j+W7N2Qqc9J6MstMRvL3Jte8lDI5vW7d9Pq6y+mcIJoxZnytq/0jVuSf8abyCVZqzhtHyyr+dLMnbCd6zSTIhTIi1HoTeaklss26rgEOzd1e7YTlI5mc0WQNEutOXJi/qQvLQlr/2GxUKnnWqId9A+sPTqKN9Bit7+uZtIlpxwAgvF3FBatfttb6Iu8jVDoiv/E3dMbpCOukx0lzKqNlHD4MaMUlUEolzixYxIX65i+gPMTtiXiQCXSwwv2R8vPnwDD5VCPb5rdQto1vIsM2a6nx2a6ljlyEece7rwYrn5IFZrxLtztmL3vhtCULlMS/yMKfGUKnzHL2Lb6uv2Lku3laB01tHav8dlztwetguFOLUv8UyURgWpNh19Qb3iQc5qQQJjeRKDoGBba8IvQbp5+wLZc5dXwIJl3Tscg5n0TRUy+k5f2SkfXXZ9D6Z/8LPFwBw8VZtPCvKkibjJKX9EshHcrdrxXs3QCVgfrtfUhj38LQlKsROPSXOJlZeH5T3N/u+R5RnEknlfn5oYoz88111zMzW3BleK+aaw1ABuc06eogjOTn1EIxuD5QUP0kLj0q4y/srnkYESTaFjRcbtHJ6VcSd31Gz0QeFZrOqbacQaSeqm4Re5x2PHWa2srkkbRikNu7tV0eO3Oc63u9Bi4V7nSz5L7B3r5F1Gg8xA9hcxzCCCBork+whrWqgJ1ia2toTPtdUAijoKlfKrR4lYO57X4qFZr9i4R81CIeWt+8zIaOm8+KiXLmwvYi8f/iUblUsA4fKlBHNobVgwvC+wb/mb/VN0hmVslMBZdXaXrUus5Kph0pguoQQ9vmNOf9CaiO4/T1XUdaL6jF72dFLqR5fYe/OI0lojVen7mnzgPRWb4Q06jTHG1uZ4PgOe3xdn42LSf7WKvuGZal4UXKYCelfFEPGsIwQwCpVAHELMqz/DG/Yzv2Ve3ST0/uGrK04cf8nS4b3CuQVxnEMFvORfjgdw0DqcWM8RJk2mzmDRbSWVd8LTm0lgRa5gszVWRm7pmp64zO4Yy7+awo0hljMirEaC2HzQtXfHeIa/48DWc0EtpU9vsoknEuky3qzLmZNli/FjTpqIClfTVpPBUzO+5f2obDx4zWFA+0oPiABeVvOXVPYfYFCz8vkj2dh4s3gzAdi9DDLi1Ik7+WKX9ZzX8u4OP+jfkwKhTUJHBg4SRzFg3rGe20+i1eITTpKljkYyV6AWf1zbvmO9MO6a5NbUqhOGcVE1pc6DGhZoy1F6ce1QrLYhVGf5+i9OUQ+9M7UnVjV6H2tXp/LFWneLNIBuRr0ONkuHYVb0xEM9vbK0bz6g7+1H/9/a2oNvzDKblQMJGQmYzxFPoMmY/HD6TeB3Z3J9mxWq8WDRna828CDoIFRmARZ1h7Y6nYiwwdD81F/pEDjc2CZbWYUB47JLx8UOqQ87QxMdGZmf94tjUy06LKwgguZDLrSIIiLj93EPd2ZYDDWraqmwoONetUOohUU64BEZhEYCwP0wRP95iEYc7Ny8fTdX+LJv/9n3u/N3sj25BR46y4gHFBbriR3YEGukAyjAy0IzQnC5LuWWgZ1ErE+uyoZV3iS0ALzXyE94fdmJ6DjHWOfWxTYijlpdP1uLzYdHQ9veZp0xSRiDKdsTVHkvWWWRQXjLS7sjspfHe7979vSvZ5gcgta1bXf6RuiS4UaSvlpp8AWCzlq/xU3cM8lPQ3Xqi2vdmK7Nov/hH2EpM+MRO5ElPFhJdCsvLTPKP92HIOvHDfwunQW5bZr+zElo+GvC21hvdTZFjjeoLCrYNdZf6RJ6lwsc2TLXMsk8vLbTgz7yk9o2xmlB1558d6f0uUvhjO9R0odH5dK9vmpZvRXiTr7cSDGOSAqRjzsrXU2aazAMUGo9jDenplj/W/by0HTcHQyk5YP2dWTV7qdIZYHiLcO1r//iH5p37VEMCweS0GeaxK/e91DgDC+c2UCL9i7E3OWgmnzYrIlx0zJMvmZWeskTxVXjodE81YzZicAjnQtxf12zEy1L+zlviM97tEsmb+cg8t5n9LaEk3M4J56I6LyKEZPcaUrGinbjUW6s0FpRK5c5ZNsjK5yOX8R8Eqc8ZUaDt4fbI2wIA6jVnHYwn5fNIrWLRI4j9grLW1dF21pJOGII6llErO7zxnSBZym1On6j4ZC625/L2w0R8n4zLGLBGAyh8ROW5zTkAU50HywqPg3g10UUud+ffo5Py7AYVmvdagYBycFEhlPYVS0moSxcthOI9eGRz+hUJxbMRYE9+K7dAi/9ilu/UC69G5wVnOl6nqq7r5zMx9dpSyopoL5dbmRG5Ip3eWxWJzv4WxdcvVLfzGsFSNmBjxG4lTerKZsiJy+EQ/7VQC6b7/w7o/fcgWyJh0S6TYbMiY9akA0r1G2845t/z7jgMAzG3Se/WCsziZCbIslG3ynI+bVgwhk2nKekzobF7SezcoirsL5pH1ivCUpLuQMbZM2zIlnGlcKBQRX4xc/uImp55I9Ul3VF+4HWJo+NW5VKnJZEg3UpUrPuP8Gbl0egKFsWS6qFAeXdlbK1UfdfG6ynf6iGsZIqedrgdu7Snw13v7G7ual2W9fAENcTgDBLW+aKBEfoaZfvhR+gZD0UisxHESE4Z+qIYiclhoKdGyFhe4Mh2SKVYzQ09TWN5ptawU8ya3Wojl8FNlVSxsMEU8gyELUSXX6Zz6gwylxqZNSXFlcc5khE49j8J4EnUrvIyM762NkcQ4dEmqIvTsmlFHXIZEDu4fDRbv9E+iXBOBsX3aXYdBizlsO0FfbgsrlgcnfCVj9fXseGhsLLbU0Hd/sa/K5U1OywNs76qSndFOXY8td3KWGvLB18Vyw1AnPskiMT69IQcihoc15Hh3hur/c2Rz7uIyP1ZsmUzOvcd4/FMRzXDb3oe5jzgrD1KCkr4f9lJVdJkPIsEtEWZcFhC4hy7oL7LAbzDp0krV6vhAJ6bBvUlEjJG/9JKEF44Us899DraahsJKWtZtWZnJsc50JhSZuq7rsbGptNxopB90oTQxlOUZT0Xksh5jQdZ5fo/zgh7rgqwxn1gXZa0Ls9Z5ZmOhwSczmxNpqhgyFbtLx59HFuggxZ1DxbP1wM7MQGJphRi9iJwiLMECk0TYj/V9bkrYLUSWX8Cgs20gme2pROla3WNnbD596LiqbOXr5yyMUCienqVQol7G1IrQ4kKRmeaKjXXJxUzL6cXzxzWUFeHVYPNN43uH8+TxI3j8wGE9fngHzx86rCcPHtWTR47o6SOH9eweUz1rOP87JcrFM8ryxLqrK6cmkARWUUeX5YrVgBFVT2LEuUhRW7fEiyS7dhyz6D1Vs7Dksmgx4mGAo1+/OfTQ7v3svg1VT7VXctyh4Za0OjuYP1+xRYxiMs3K+Q0byuWyXNy0szxJr7v5mO1xkWbsOR/UN+qj3dqnm1a6VxfO7N2aq3u/oJ/cu4dxae8O6sI+ww28lBg08bOXmPJqLsrnIqdsbWcqO+s6zrh0hbXM9JPC+ZdJAMZM1LcLkiY3x5UKVg/O2ylSnD0orNfVvPZ5vDGpAUo2ZjWetxyZxmqfLjqE9YembJvWNZTKm9KmVFFZyeeTzUQql1vEWa6SDRN2qCSd8np2rP/hm0qsDtP/r4Zkz6F8jBHuzCYmw8P8eQCj7vxbvdNGd2Q85FS8InQD6aMhnYFeeUeWAeJEPzR/HCY16zqTaSVP51siw3YxcLSAk2xkZPsp32yHGxgwiDfvzauzPJT0q4ZseWkqDBv1VrpIVFPlylxqZUjKsGO4rxOeMFENKdPFS5rJpva/46Qp68p0RUgWv0StTZD82jcdnkS0+G/GWOh0Vc7xl61q06d/OxAQLoJ8mazQGZzWZU/LhWJieaepHLowJYwOlF+ypBkHEmaxwVwYFmFAu9IAoABvJKSMbYQUQ1RmzRhp9ej0UdR+z4pyy+vkdk6am6++LpSPpLgFlTTU9F7JhgVpGCjVaskdl63EC/nYX93GPcb/JmOvhkZlEKq+jnF2PWR8ZgGzoSyVvankt2bMRasySOBjRTDcoV1mgc6IzUz2Cic6TsmhdbCBybDa+xmBwhQgAu3JMxYBZCMcb7RzaiEeGA/163IwTwYv8NIV3/REvuGDkmYqZZrGUsbSeixlKGUsQylTaWM8US8tfXtcqGShFShaHx5/SSdC7kWAR+uWQHgdmRUoKCyjv9apxxZyqS3xQnnz5nmZv+v68cFscb78eRDM+q4bCABxQfv+XgxOVBtxd9KIaKCw8pkzErtjaYT7liVjN0fDb1CjB8vqnJCKpXS7tM6w4UE80dfNp+4bMM7cdvZIpJ/2RLHVE+XGD9dsyiUxltNZLudVbdUsb4cO+1NnP3edkUAZigBAaJb6C5T+/hJ9gQm9Ggolhsfyw/bIhmyeb3D5sh3f/LNY5H811/2doLNzNiK4V0dVd4UBGCkeDr5aPk7xUUX/RzbIhEFRJLuU15MeboJ+hQ7iEh3EO3UI3l5eCV9eXqdu61afXkfSuQla38vLa+U9TtvQdSN3o9XcK1Ws9kLxGg9ks+/5z77GWLxENCLCiN15hs4ykGblnKILvPMWxOBKGnJah/nnSCuzYBuX11u7x3lDameTSdq9bN3VO8teVWZtma5iyt+P1s4nwhLfYrD+KUZ1u4F8HQBw5aNuQWHho3W7Eay/C4Ni8G/sqJH/N0DOjFDbjFAzA8Q2HeTMAPETF5V+v4qkrUYd2KrffKlDIwo1kuOuk4gm7mPD3FTj5S1GIvuyB8ot7/ovH+Fk77VEGFwThiJWFphX9QgKUxPE7A7u+C/CsAMraIDBs9MfrDhXovXOY5ZPdPZiNi0vl2VzSBGxX+YRlI6t7/3sy7xG7Vw3EWv+KkbrPXMSuXpytdukS8QgEWYwcWy3vKKWfEUMdNZLdjSR8GQzomsMUBuNkNeaINcbIK4zQF9rhNqk1xJ/5mRJfkheQhfh+cZ3yAFI8vW7TkWaskC/OsMjYvhrRmVz1n6zDH1iwxLRWDZ8tk+lXxqjyxXlH8LicCI8cGMiDYeH/ErjGV3MKM5pWW718DCkYlvSXJYp3kH6e1ce9/09kc18Vd0f23DtMJLs51a2PUtBLwAyey8RRotCAXvuzhYq0JxPZACxX3b2Io5QJBGwMOQiUiKyKBIYSgI0xS+ZNL000PHX+OBA5eXELbvrlK+eCehPRzAiDi6R9ZZySslCsx6nxGx+iZgvZkVJ/ixOhT7KHKa0mO635zbfAZrOuFlAo8FxBAuY84u3zAoZD3thE0mWxXE7tsgkK6Jx8ThrmzS/jEVJr/al/dPdm2XeEIUlgHOL0kWxKARInHuyM69lvjDZAJw4wIiyCUdOi5GgSBJCYlJiyE5GQ5Z7SC+a9aI8Hop1PlXHre9dJxEW8LcrWKj2/STpyWWUlZbJadZqLhHLc39f/9jREiULlsFrs3VHKxjsZ0tIy+EhYuqB5EDhGktY8aFNQ3nZWGLPprGY9/DybAaLr+qhKf/sQfMzxvdcvw71ehkm6Sh34E10zeeJss3fYcGOUItX+jbHu9S875lHgLkzcXKbAEUJmYigSESkwEgSKDC0KPeBR9Z2gJgN7OM6S2BUgEa3+effGeoj6b78lHrd6OLCEjFtcC3EbmO3kqCwcBlc1p974sDaG01awGAlhh3xA2Gd/eNkEVMYm4iysEg5UfYsP66ce6Bp0yj/xAPFT72Mpov9ebYQJSS8wLLv25qSW/Tyv/VFf3S1l9STbAXNzHE9Aibc20gQX4eDNCEVJQQGQgDChiGnUBKcY9yh0CScrz3KllieqLvHdRKGLHbjr6nZm7dhhKEv6oQo/oeF0ZmKkB05faQlQjUbCi13zBkt6X4YHP3j+3NvbSh892ho6tr1BONOfKMbVyli4TunLqr9DIE9sjlrMPZbbrLiiXRmUdVfnUznXsQbM4OSdxDnfjqvOSgUvUPib9mt6v0a8Zyuo/nRZ1LuSm8gtcco0oSwKJIEiDgMBQaSQEmQmEwXeZnuRb7B9KpXuk6seIUqNfz0w4Dweqwfp64/CROKnbcI1xLRGCGM6J3zsFoWXQzq600ruv8KA1S3/ZMqVjjQacCIrXfS8yudkQWhXeYNFU9FhOxJ1F6haXNeWqjeOMnovLwcOYuRq8Jqj0QlSh+TTJdYXhVsPeiakmaw+LkRZmCB4dfJfkXxfAptGyE4IQUmZGWRsAghEjWKFIGWO3dhZeuUnRyr+3a9YHpPdyP7/Cdi1OkvRVnYf7JQlffAGU4EkVREKpKpipd1+lC+sZfM1GyKCbyIOLK9N3fXAuuL1xuqYD0PzPHBnL3bNDiKyxlT/BSGjDJRxZ7OOVuz5XWbiaieyP401dL1RHvoeWRyen0boDxlD4hwcHgQeOWwO9jxEogYRisuDeuxNm1GuMaAxxFCUFJQQhJCEqQIEs4UAhUGrgDulbdOuScIo03ugJAZTA45dzz9M5KFAsECOctD16jV/36LRX4z1YBhvNuiYAxskwVcYdz8QrNVPG66mXDlDRtEhOo7OUOofD2cljJVUKQz+EOesVf4YEEPfUWLW7IKTdZezIBh+VH569AwxmQT91tWTkxGwxDYEq9sdjqDuct6IvvaOFPbLR0dBAvQeGvwHg76k2lGQpxCUCNgYigIoSiSFMqUaWx6SgOMOAbarOh35G2QupxxLlfz2vh2uBXNTu7DqHYrvXxD0NFdm5J0o6l62TPX5LfZkrTDJ9u853whBlF9oqeq+akV5TbG8Cf7otoP7IqWWb5f+Zy5tO/I9EJWVBusKLaOQPHVSQ4Nt+n0g/Uc8Usw1F4FFfeIk38KYAz1B1qV6sf7f4xcsEdntLzrLGf0lUzqjvSdk43P+9SASsuIniuQ1QhbtPUcT9RMf9kNKIZEYBECJm53oXQK0tGx6eH/uLK+5nY58N+OJhGC1hfDEGFPjw+G1Nrj7nsySpzf49ouby0m1E1NT9y3+or9oAEHl89WPU/6y4xyo++JU4LpFU+1T8byRdK3WOxLJicu/sHf74n8jZPM7bvc39Cbh/N0EwfdoQl1HM2TkInKZKyZYGr+9KGt3TnKKxNbXJvKYIw4ypMpAvFTI5E9h3vwpUVcEHcqj1Xbr5t3aDBzD0QBAIbRcr1GpKGQxboOpp0RYoOjEr0/E75r2LZ1eRe2GSaDLkElVsiYj4gDuDbzqtVqtObS6Djsh8s+RXk0MKykNl9/49YuXsjfzijn2Md21lYoXp8LhSmJiVDd4PRhVfyDHsg2+6B+NAoS0sQ0GQnU3GL7uftRkCVLJhodzzmUdeZ3dcrSntoZ2ygrUYzrlRZh5Uhz9QNRV5emZavNx8isAnfessvfasTHRtTARIAoPgaPagDSHWDABDkzQf7RAf7tyiJcjO2mQVD54m/R2V6dNXOoRv5dwTVpcfEBgziG8JboTcEEo/tGjLmksNrJGHMbCssZLdKIEGFSJ4v7jsoRyYe0Iv+dj6q9HbVGR9fzqJf9vpB0Z1MzRnidPwPEfBjlXectnKS9uk2W/faCVzeZNtmiM0akHezJZFrIlAxSOG0xpBdQ8tn6tDxQZy7uZelRWpxyN5gKocFnQcAwJtcI/nqdYITcbIRab1bCzxZh5VEcyGI0MdHc2S1ESxdWyrwb1Yi7TAK4vezPck2eePWUPA4Klo94h0GrdepR9/rIp38aCxWSRUJmGReKbTj13JzBtKEPNcfu/EN6I/+IvyY/lbG3oU3BzPHiSibUOkU8s3WVY7JbF8MnzxhTTW8OMsVXp+vhEyVtTcvU016VCRVjJJNfZtWV+7DV5iUtPFJr8QoTonvpycJ9MAohFKMVUMBYK+sxSfDeaUS4xaDI9XqS7l7TOVp7X01+aYxxWCA5vcSuSuW4tSuC4Zqcs/st2OHjWLbGfTz4UpBjyX82FjHGnIGBUbhTSVeY/zC2hgltRrOsHXOKzRocaSj6kGwR2XlSe60Piqf4udTtSP4LRa6cdG3HSKBJtujGyTQg0RMHZWzjHHX35plrtYYMgU3Rl3WpTGSz0Gw85b93b3J9u7zbNT1X+XUaFABHh6UH6qBer8MKhANGmIfRnALllbAWIOp/aYLabFTkRnuod9WvQZ1AjvYASTfz87jG+j8Qsh5G43EZOe857GyWZnuqlJa1S0Zg9mG3oLR3/zt65/tkNBcGV9ng9GF1DsPoR2n1/x/K7QuIN14Sb+BjH4869th4yGfIOtMZHO3qyWVZOeeABXt0544ttDqczNhBwqIx/fQadmt3jRRvkabyuugUA8Jv13RIhISejkbUDHSqGebXdArW6y/7JmaEmx3gX1HRnPVw+h8Htp/+R23hs/sPbTbQNenzcbLXyaq4MD25odRouT5NFAn3YTCM1tiw0j9P5hd8N2NDaXXnTa6UcPpQrpE18Kf5e89rO4+gzfL8sWobOzpdSNdFgBoCn+rnFbUAcNT9o8N7jB/+sMGd2pO+eRejlETXWJTOjjf00Yt0XZ49fDYgDQoIB3i3NiG88g2mEBrTqhMH6owUmV1lGE0DjPn5jJDXG6E3GiFnOsj3VzLnHFKkhcEAlsncTgy5ScMqTljXJVqYYpcKzB2qA66WcUwqX1atmy/B6VJw60C4u2ZJu4JZu6tBWD36nVmQw2iPs4zToq4plRKuXNp3OqZt6OGL/ah/bVO9aC9mtTo4ut3xHac2ZLfsdVBPClAFhjhUYWIZ5p+VlmYH1iqsx2nJaRYpaZtXWLnz25YjKLEor8w38tGz7D4zbSzuMCScnitBz6kBgGxELrSH9xgjxFZE+u9GmE/cRhRMXaJnCgSnUCrnsFPoELzQGKl52ZwSAbLxqYA8sElCQ6PQmgwoHtvE1R2FnVY3QrpbyCXnQrYtYyobU22thOsriSV8j21zRZwpYbtcyAhbBSSprAGz8/7z+ePg7UCBZBT/dkXITnv1NCUq+pAhwlSNjE33ofXOljbrlzJ1dH/lcq44V2bfrlscqC/8YFi0Suwp7ZgYEGH/ZCkiV2HV9iJnn/tUWFOhtaw3L8zwuDGLrsO0TmoFclooGbam6T17W+4uY0UvpjyENqyISqyGTftpDwyIDjZAvckAsUUnHSJgTO5hPTN6IgAsUkKJUFQTI5nZnmuTofvvjpaKda4R5bY1RxqKBg8atLiBretzgGfCfFIOkTi23h2ilsQf9bR7naTbTpMfQc9NYRJh5BVggaXPMjH5szA1UFBxmue5jbKnJTxkOaf6zs7E2g4/T/72LP/uTa/3/n2/i8Vjk1mnNDTF0RRH0Lq2w2BZ79/KTPwnUHzRV5EvY3zJKRE5W0vb1K5CcuDBsJ5PBftOOwT1OCtENGsbHIGz5yxslj9LKpvjkC52unfK8HnECr1Nyq1NkN8xQm/SodaCBAM+Qmas2E5JkKawJE9k5hpl4zkQw0hEd6qVWZkGtlxIG3LCagqueV8I14XWsUyOQS9HgfvaOOtV40e6a1jBd0+z+s6a9oebjXaLofRzY2out0bKs9cmIsbs7yEJr7AI+B1bWM6FgrH8FIRLSpX2HdVj+Mjr9ac1kaxkZOQ8DCymbIt1ngacMkoTR2KnJJMPOlr5lB3TvFrvXBDMs3zePljpOOObnLJckXJP9RjDzZQT0Qyf7sP2BJiYvbsL7yLrVyIssBBqGJOIwylgvBhVP1QH8sfUep2BMOvEU4xQm40IN8zMBGwWowVYxUgmJ0wiJj70kepA1QPTmnMeyrF4Ni2nD1sPKdWZc9/cVLves6G9ceto+Tv5z3b7yi/HhaJeenrap1Ki+h4x5Yie3dhI+3sxrhyW/leUXhTWxTpNQdGOaZMSyLY0xvHpRRbGwnA7ui6YZ+v1Z4MV5jO2cusxkaHHlv0Bs6CgWKuyJG+F+iB3oRkZrjguNrpUbKW+IWSTqCPj85G7OWg4xEQuJi42Ql367X/UDKIgBHyM1onbluw/jqBLkxgmx5VrfW07iKWxaKkyAkDtXgk9q7YvaqLtXtHSYefq9sbBVU9bilc+byrcsRl79nqaI3u2ULv2ctP27u3Gzv1bU3BYD8eSQ8c41d5aUvxZCetllpVZzhjOaM5pITsXyvWhXzgU++nRNq8OqMe6BUxp2ZSbG1Z/3zdj2ryH9st+nvmPN8ChUoNyxQqCkAlvRYYoDZfDFr9H5Oin3ZUk+KNYGRnsyw3C3kcTAlCCDBeGHAXHqVaPQG4VOueqJZ+qg/icAXqmg1wPGC1qPgXLcTYEOUIOJZgA55dlxZ4oABqzky2rFlhuIuYd1YylvjaVh/tr9bcbrakf7K01PnIsLY8eS9tDR2vNLxxtNH7QT296r6/W9F4fmj7sozd/08do/oOX3vQHi5L9TQlb/VmnPa3MsGhOC30i31yQfTVN/2kH29s9F39v2G5YkFmh4Oo/KzvCT0FmHA/tG6BNbFD1wD6Qv661ud89tdKNPyIY1s+vhMrnMEpHjlOiTJnWEv+3wnX4OaNOo+9dGYZJZl8EIM2zEd0d33fg+rSufoPIaxO0fXkj7QF6yJ++5Z0zXmkWMBpRAisNkgnJMXIQx0TkOp0p7iBKerBpYWyd84sm0XeOn7n1TR5K9U0L0p+7U/PbkdT80ULNH9yp+Z071X+zUH21O7JrRiC9woL0ak9km92RzjxU9cyqFNv2F8sZ5uK00PW7zjf7kJTPdOT94weOMW5CDLnlUPAuyNYh3P62F23PmdhSsaQJdnbAjqkvQ51+Dqv/Jhhh6MlmBQyeZpTgtIwURkvXGULL8IYeNAdgyf/6LQUfmtCILs9KXIRgVS3EgaBJrbivN3xPcQc5LH7LXIzUt+gQXGOC3Pwbq5MeRlclQsBqgkhalKsI6dIQISz1UyXX2N047wdpKbrkY34lVX8z//yhjDidIUYiRkM2osavI7x/opfIcrLchsBQxRAiMs7xiSZn3uBIkyvfLI7FfcUVz2kl0Y9DSmEiuDJfsG2+sX6ba5nA62gOEIFs5eANWECJST+hOOUjZg7YxsoQjDS4NybU0GxG5XLac0WGJ4rrrSg2eKG4wk9vezJlulOe/ra3OTtcOtpuWakyBgyZiqCFHzgizFHwJ4x63GEiwLcDCYg8j3EtIvlZOrVG5GHMAKOFZ8X5IKckyDOFW9OtDYOq1A/v0Y5TBHSISR+tElGb5iFU/8sy/xCnNeGcY27QVGHaYjg3NLEuy0SYTkYkOYMpJFzDaTrcbDZzYdhXLozTjszfGR79bUHZgWZ9zql+ob8amYfbUBLY2lKfVpQF05aq53LwfOAeq5rsaAOL3k0wq+bdYJj8+zL/5qSR8cGeqK73RLbRg5rvTFXdd0BvG+q+F8UNjbXt1H1dmVOrrfNEG1fn4OElY82LD2ihh7cC+q0tRt+xp7M7fq86QTyVeiVfBxAagdtWqmLEMHQwbnuFe7I9C5M5vOzSsA5BDxxDEXXkWoQ14TcSv0hhVH3CZJqOTeH5dcXQkJTlExERhEeTuM9YTrVyeUPRkNN9htMWo12u97N51sfDWnY8UHKivk98OrfbqaxFgxIKQrOYUPnXCGSnTvZJUkt8Zy0NvRMDKM1TzbnwDKd0TGR4otpgRb51JBXvnKBeHUNCW7AqyDSbsAoVNuhUxtJatCB1Oq1u9v0EXbgu1ijxOUZ5VRBkVZFmrKWPkEmNMlCy4JiQIEWRhzhXuu/sfr07D4ZxRqxGmredJrdE4c35vjaCHjWHFSsHt0mUPtjCQqOxsOPGwk6fcKH3BpHKynK+3RfC2XI5l+UlyyM+4Jw52ViMhXimRxTDIDYrg9M2oyVnBkObphER7mmGEqR9Q29WzHXXZi8IowQR/pDLzgb0aFmwYIxskSj7Ph+48XZZORnefZOVj/uuz2RB/dR2esVCehpb1Dn51kBxGEfytabTzZ5g1fADLtboE9pEQaK8W9PPTzQgj2Rr70gdQrAaQcuh9c4ePQOJwRgtJ8EpEBwBhYGH4ek8kXuvddsi4OxF70niYSJZJApnaa+uxxCXjMEc122A1DralNPHJt1evPgGJ7a4UMzdIlEiXAajRXhpEaHE5GEq1bNMs4tkNhJlISWyDOfX3Wvdo0y8DcZck1W6wHzab1MEe074krt0LaYdhyP8vR3gn15Nz97NkclzlH2P/CagCAZ0D6BbS31FHPtOovMZK53pUFHVy8st/Mv3eqNY70HT3Zn/FsYa/4DR9bcG087vMzkcQkDA3mww2jXMAIQ6iEG5CDoODIVKjMbEOvU4AkQVU8djwsHIJgE7RF73PiZtDYcCj00y5HrUJMeCOxo4y4Y6OCa4dQizjr+PIcjjrkCh1t91laiMSbNssNyICGPufInByXJtJkxx3uTaRET08Jg1uZOsjEErhihvse7VT81okc5YhzOVZuHq8YStobE4GRFsiAWSbWaYy4yo4Jl/YwPxr3Uykm5bksBluGxtgEZPq3zhhj6Q6bNc6NVrdTppVpCkvaVW5BveMYran1mN8ovYeNFhbPoE49IPkoBTWhvZIQQYjEfOSIKAIRgPPRyGTAUCMBrW6uj+AqL6C4o0ASV+Wb+ux6bxeYCF3H0qWX833bg06GBIETsZdHbsbXgW0JqLsOQL5hD0UXIRRZuhvhKd+cvbWHDU4PAsix5jRZavHEw755xuFdP02XrEpNX6jWLZgiwPEhFFGc0ok/M1E5RalCYGO1wHDh8B3IETzHZZjzAi+LNZE780n83kHbjXPZ4Wk7VYgL7E8fT8l7E689RKdZqJsvCrf7EV5eUj7W4cwfhmNzpZFlTwgOhsdZIAx8Ss4HKIl+kBqNQ0IeQ8QnCMHAy5KkSNwWGhC3kDBBY4T3oo9Yu92jwa3JYfC+lJBljI8D/joaGtXv8umASHdlB0mxoOgHX7H1j73jEgQGNUYSN/l+j7UTVc/AZSiuQymUwGEYwRIwyD5LgTxIAwykaFoRgypawQLsJ0xniDLDQv4ApDVXLn7f1XoI04jSDipVQiLT4L9PBe/MNdSf9cBn3CnsweiylBGho2CRCm+L1Zr960wWJTnGVMdCwYPN5jRXmFB/IHDzU9W0WievVSp3xGYCiTpDh1sGqv1A/QaAlOnngWbIU2elQHXi3sQXnHBMAxYRMkVPkZzAw1oujgLi312f0xT1uMa8r8IMz/BUar+eE4w9obYwAoOe3xXWcTcNz/4h3CWl9cRBBgX0yhcnS1RVSUX9kKVWKhSjxKw1R4fmUVrOzJIm1BNfNGOfsnb/dEMbNSO7OinP0gT2pnb3+7FcXMG8XMC+XMA+VmTxTrTSYrkjB1JjaVrScJeJjBk7Mq9zSDFmIsSnSO3UaOjWgofksi+QLm7CVIG4msjnPnK9C91ZXQqBRgHE13d0f+DyvK603mTrFFROQNgQUr8pk38v+M0NrPRvUxkeHyK/7dEMdywLky28oGd+HE2rNm1a7wVNM2mx/6DDClGE55eZ4cVpkQQlXVFAo5hva5m8L7WYzMh9mZtQSPq5A8nlVwm/Jha3l7CAdCyVvFQgcR/hCfdxIINsQNXV/eNJDHKgbzpDWYJ/lgnhRROqgn1BCezZ6zd3ZFDFS+mOZc/9gx1nWP99dbHuurNz/WVzU9zt/c+PgxlrrH+elNj/M1tT3ez1bxWD+rhsf5G61P8LGpf6TVonq8J8pfvr1jxZD++1Nveqm9MMaWBLkhBubMvP1AA/AzGiU6t9gPTMeZfr+SnkzA/Vo4oDyH2jGmcV4U6uRJGmLih4Has7NH0fg5DxTX/0R+qNkyFKakt9QD2bZxqH/9tM2Tg6kUGzhSFSNYPCGO96FDxS8ZMLX3FkIFNy8Ub9197VcDEMEXmPAQLpwESRU6gklRmUIxFQHVbsG3emjuaZxwc4BJc/SSzUt7/cw3+k6p69DUNUMaB4QK3SK9VAnP0PsfanTHqgFdjDurkbHQETc7eW41KrcaGbVudtq5xf/qpq7/O2S3sYLGdDjCyRI9jaXldRaUG7M2WTGUe1T08GIYyr+EItCynpsF48g7Mx9/bxBUrn/LAtOvqyN8a27LJAS5KKAqJ1rtP3FdEuprdxpe7DcJI7TqvUfT8BIPpNcZrBaJjZMRrkajl/QnLFRfOVlve28l1uzOhXKPkbrsAzB/h+62R0UfDjjp82+C2poD3XKuDpYcO17dmqaC+P8x1AQpAkSKCg0lkJwiRZFDQD4i1vYykadAWwvHsDfUawQOnN+c+n0ahKh1FLd8S6CpV4xrNVGzwtdm1Mj/fmLdbsrKYGFm/Pu/Mga6qGpAmwNzm/uVzGOBoxFgCIioJYQkQBtDbmrEXD8Vd12p7uOQRm9yrKrjrZhwCXQKCin+tYOeWQrdc2i5x2MSIjsRC6boTQ90R/rTHtFZMYV6RBxaRMtkur8vD4/iiWF9EA/D3sKgQhkAum7vbSbCjKnOUYBMkLoY0KWuZLwmTQMZvbk6V3syhlN/V6uqudZgXZZPsipOJpXq7a0tVP9+ot78kMqsWY48Z02oChRdMvIhuM2lfCvNZoL4TBi+tb4vwTNqEcLS4lSAgwJZEcH/uXcviwHz+oxmdjanyg8/2teqXabIz2ZJYPIAEF92tkrYyUZJS0DMD4R8jrMAK53JjQVd9YMBHbqhjamk/0RAY8i0qK36N5Q4bmoam9HN38LZ+5K6NH/VPXcwqnzeqLzIUCb5anki63V9uAzZmDa8tY6zLdR8yjCaTHtrpgaTajCGS4JQkTq42tPOMLD2RlOJ/jSk1kaKcAgB90r9OCXtw3qlGMwcp8xJy7YwzUFX7p7hpxr/bRi9wSIrIiuLTFq9DL61BzXfnaDaj3cmdVS00/TS8IISlI+C3aV2icCAtmVWltx0HsQzec/51vqfCCihyMJQ2jSVCPzAyQhqN3ztoK0nInpq3YS+lp6M9n5yDOaCR0mxRWTvYKVqdYCdfPZ4EAliyEeEXXV3JvDyc9DBsveTn3RPlJSNkY4qRxUEbvtkang+Vi5myKxwT/JLr2FfvJjjWho5qv7H0/3ju+Qp+rdHahapE/HW68qdLUgvNUQzGUQGEUil4ljlVuZNQ4Tpdv+H0Y8LNgPTmx9caoD1nVGA5X+rinuSuwWIvWAB3OZP043l8RisQHjR+xAoRK5TC+HfN0e4yMSfvlGY2HIY3GZxIERnbhzkoxo/Q6wrDeZcc+o3EoMxbUgSwhR+4nDWuY2h8bNPs2UFNfECcCpbgwgHMH85P1KYfOf9omWHgGsMOAWKQkmgUPPaBIm/8eSs77P/yTjvGXEMdAKD9I8bqUe0S4i2onWj9Xo0dqoMH5FXj1Ec2z3LHoEWypzCaaQwgNu0ljre4qNRiPyKUUWhIMjBqMQrk2uKsHgtqw56hczNz5oMMSB6LbkKY+Che9a2u2355gPUrTI01+fwo/EZv2YaFBM52DIUSatFJPlNBtMDfatM/bKg/iPd6FbrDQBY0DpVJE5/a/VLsuMnPNFxuyL+NB62tMTo0m1jJG0i6Vy0CLY66UlHsXQBT4u7pVWKHGdnEEBlrqfkJCDj5Rr04MKu3qr2OVljblb2RBVDqLV58wxhMt2HKAiLlikh3D3OZQovX1uOmHnKm8uECb91T5GiCG9Igk5XJICXo0g6VeiI01YNg5+9O9n208nzfUOtPAmbuGw81ZviAPfGjQW/8al3YZCC/96192c6mf9PoanOQtMMyI3ATq9lCZMNA3jMTMUJ+EwcWBxlceUItLwzcyY7C3dHHgnH7q4PhQi08/J4wH6GyRLPxBegbp6PUUbHXQ3rlHuqJ6agTEQcNyFcyuAYXOVOjofWTGHR6DMeihjunCkAAEgkaHNbRIy7KynZVuVl8dIB6E1jD09QJJKaEpxAQZGNgY3hNUcj5Xb43wZFZFYty6YkAnWfD1A3hqQqf4Zj5iF5Xn+DlatLfPW622TZlB86n8GiYQhyd6RMG3mVW/6zPda/TOHVvatDL0BjC9ahxWjPxUWhbo+T365FENcokgRKFQUB8kRKaAx+95EZ0YSzAmDdewOheqHiuY8Vv30DlqGLjboMY3sWjKuPxsPmpiJ+Bu3dDADDWksAfc6xuZknbyEJKMPQc0QRfAMibas1z8hE3PH4nF5alYFVggSSMTeBKkNIPpA945vTC6nLp2OUdePZXPevnBKMlQerz2mRyViu1IZc89UNESZPD2qv8rNS34+7zm0roDsSRgFih3qQSs0Nk+1TrbE2ywf3qqXruvWrdfPSAzHAdXC75orkmaSvATINWehEkYtDsTDm3GYMFK90+DMviTGpq/XH7jh3Nbu89BjAsb1Cy8DNq43R66W7FJrtnGWE83m1f9a9r8egPKUKvKFFvBDVWrqsdSH7+TjMwXREOlUdDJYxwTFykcQj70xOb8XpYTDea2fRjDJ/+ROqXRSdaszc6WGQePTDGggd6LV1vIlwDV8UCUhnQxpCuwkeItCJKhchB+KwuBTkgx29I1eRt18a4NL6k14Wu6QM6iML3B9bDVigd+2u0PMYJRXGUlgWm5WZRriI1IJKDCmD5zILtV/2Mdeeh3r6IIAUimsdzYJ9ExpRaFfudz+Md78fRYwVR3fbf6yRopFORyGaGEn3MCN6x8MsW0VzrubZrdaRXK4oWBs8hZRqxPqUST2bYTOoTuyqiObQEZlvM0pIrPlF0ZzmE0wTHtPpWHofPdYX12rKVY11gpaDDhiZVcCuLir1S5j0mKZOzS0JCqXthASUEbSslbgsCjrrXAIyXj3n3Oo7dfK6aOzpSBJrmginjQFjPGb3yKM6Cs/w1JsEuYt4xcg9RSE7RlQhBKMRDIgsd0b8lntZeiCK3dibBBaM3meox3MXPrCciDNg9a9SfTqCoZssY3Tdg4PCmpxyOM2y7vpK6neaMeHKlw3er7NQ/ewpmmx3gAtlbIBcirdcuDB5/x06XXBxxn66ZoemuYAwMSL3cEDw2fs18QmlHL3nmAva0C/P0EugbPR+IMKCx37QcCgryhsrl0SUoVkSP/egTBTaf1pW1qaiwaWa84fm9ci7+zeSxWRCS6XaE1GKlccblfCPmDSErJUYklqAREzIMpTgBN12h0vcu6mxfbQ6O9bXN68Ayk0yN6I0YQwqSs9ZWsC2djfIN669MQAYfqCDwG1CQzcT7yEJVDYtqoQGqaNcSP6Jg4o/k0wMhgh45k5BaiACcVQRhpFF6l0ptpgYyiudCmbfk2dgNE/fxsEsrMgnBqfTMUQQ3hPbSqu6dwty1tIxax84OoNJ8jgFlbARrjIA5Uh+wK0gzevbFKMRWCPNAcFPK5qT75/bxXUR0uBza2iRxXU5lfARQFZnniIEo5xj7HwRg2+b+RlMqL8pXWFkWr2hZtypGxzT9q/sdpyCwo2GBWzEg9WWrnZE/CC9ov6z9+U3Mp9Z0BBEcEJKjSBJSZcAjcQL3ezc5wDvMQ5EX1TCdsYhBrVsbb7aWRNQM3Qh2SwWXLOPpFraFw+A5QsNyD029yHmKBzgOKKqDTrG2xpJ3GIi5R4MoSFweXnbnXmv5cpodHYbK2mVFyBJmnPM3gtpETmwn1NVjFGMNRnLoh8zn5RNpQ4RpYfXw3k6s5N+4ARG73JPhFnwbnahr6CQBH1EARYOwQl6bx28194WxhqyYETopOoRXFXJknxpLi1sFXJj4bio9TjkMqR4OFIrk0BSQQtbIMj9e6TxRn8YryjsYmF1TEbsBHqz2TFkIdIGMxEfH9K9/VG6Fg1X2BpmuxWHGKEvM0Bddd7LQxujEWJB6Lqm2SlSGKgDfAVHRP93JuV95Uh/uIHEo3Mo92U1+xktdnNcMTHkFCDcuQ3vI/CP+qEYVxg4zxtlOqGGoTNDbTVCP7cOe3bgTyOjTNo4znUQuhm6+FMAYPFJBubk+fgCWfnsURjj7bgup4VOuJQcI2IlEc6K5Uf08qNn1eb9ecHhZ8hW6OBpjqN9hYT8CNdFpd1UD/FlDbqMpcfmLPRnaA0x8D4uRtJ38kPtzlmBMX/ysiH8DFpOvpyo1Djvhp5ZdSUlx8JoIQp3B1ZJAr0XM2PKDNterJSK8EJ4jXfgtx1m3myGVk+TL4wacYYjST947SAEQgi1lqTrD0xxSUghQIGANEBt/Kx6iP/qIf5s0pO+72hKebvRED+0lvXqI3Wm2YtiYT3p25hOx5O5Y8YZS0A/q87GyGPT4SKYOhmGtiOquKtr+ggT9BY99IeczdRp1GUdkG0Ml7O5DXqTERSX9ES0e2YWYPipn/mKGOpt5mdxoeZCxmmhM4bnCFcjOd/+2dbZR/b6iqH2m9ZiGodxfoydLM0OaMt7Ic7PZA74Dg6EsXPfAoMKRtajjdD/QZB1TM2FQOAMtRnhzKiI3zuQfWG7upsWtF/LNeO56zRRYQwRa6dOpLfL6YUMEQOWfhC1PDKw+J+2AQp3R2aaqaLko8iMub27VssbxXs2BIfy7/HHiDt1R1rUoFnhBH1Hg6KuMUJtDhnjF11jIUgsrSVRoFIFUiSYoDa8ZoLc+sPfYoS43gD9ax3Ep5w08tUVTeLbNfMpXUW4Af3rnyH4vClu9seraoILQW1D1Hy0bYTapIP6bQVr4T3x5hgZmAZEDAAFK9IEyxgob2cwqueaB2f5msx4O07L2nFWRitWRGr/ReW/Dub/vdwbRZZitafcAeglK4ziqlWbWqjX4hHPHUJwaFFM7ue40muewxHJa4xQM1ETHCGjgChG6JkJ+p/2esKT76dgB7YHu039Rp8OiQYXzob05JKv8v2Drc2JDoCiDr0TSJ2SRTYXyvsre3/5Tcs2EF7Ncs7N+Wf/Y/QvjJ3CnCoGcEC99YrXOpYhAOeau5caSXySQVFbPwgTSuNJANZKa/ZERApCqA/7/77J3/ypRuhNJsQzA9TMAf5mB4gfGlTGkxxI29tQJWywK8wQkKebSaWS//38z3/eSilSzjogRTCi37tf8eYArO2iUWS9KAaIsCiuYE4zd0WHx9BmSVD5IEzEYxVGRDPaZDRnDL8/idIFYuhMb6PurUfhZcKyr+npCTDOUGnA7yhtwojVTb6rcutm/qeVXmyRI+Hk5JzMgoP0CD7x1loNdly7bQSqvWX3dxw3tYHVrbjBuGmQHmDcg5nlTH7tSu9noPWKFxoPuAAWGMPNzXpWMXlXpsXByl7slaTFXr7MVAdn/tC87E8FKYMJas0Mt7uESYQRwaA191ex5k0+xhKvmUDgLv4Sgptf+vOxhqhXH2a9BdVVjNnWkIwlawiyiXDwGq9ILzR2nCawwf/HCECU6ojgHg9xiYFKolDpEoBWgdoUMh1BOhoJ0Iizta8Jt8aD2nRog5lPejwq1MFPmOBPTnk7dymUVCiRIYnMgylCS6KKwg0u6bm1L5KZTBnqe1eEzZHfr99Vp46+h4nYHdYsckX4IKMifmmEnNVgpx0ItzHI7SKWd4Qhhi8mGH8UKnSDuHIh9V5Wc8tsxsCTPqMQ+RkK4zFGXBWjBadFwv6/SaE0ExQypS9Gzu542OlzKQHZrIdseBXaKIG4TefvfofW/lVFk4fGAT41OwzDW3UoUiFCV8FuD6NpvxSII+qIpIckivNq6wN51j8Phg4DiKAz5ux/hmkpKSlhabAKUUeUVir2SAGBRpEm8DyJ9Juz2WZWQA0w0xmvBOafB3tI/Ixv5WyI0YwLBBdwZzpn+S9LgmtFytDggcaIcEofa+/hSFpULqnQpj8a03mIEgTBxZxBMreZK8prKW83QVxnhNgEvf74uVPEPCI5ABoafyYM//4WAKdaffFU+V55R9pTXU3ZFVSxE2Q48VaCfM3PfS0KhZyRnBZ6/VNcLGdCFkbzCLKCDb9bbIHHwiH1xR8Qfuhy/lpZJA/CMLnv2Ki9m/HHhjNaAX41N0vgeJoNoxElQCSDwJ42DzGxzOg1/nkRsghpIzQrwJ1xAEAi/iqW2H5ChBQmBeYqAYkuQkFHuxSYsIcDCE1EHoY5Yqa/HXK9uRFgEIOKh4M5dvbWDY3iLlmoP5zTLCPapVBcpk0WRjP5gxHD3zThS59DqMSPsj0S6CpTjSyf18Fux9s/5lQdZVUJWnAgN49GRoPexVVL/s5bDRDre3NgaJ/KE80XMt0U+nt3Fq24NwF1Bm/g0+K+K+dTuysPqTFZYKHk6e3ABMGYgx91DFI8xSnGWYsxnNNie9fDqNBO82fl3gjebgOL/nCRUebwV3ziTgsQ5kph6Ju7oHn+aDd1vdcTgJy5qq7I3Yqg1jDinuAYMgB7x/kKH0ZemUIhAIUJ5Sm+xdO2l8CQDNDlhFQDgn9PAi0BWYhgiBAC5JfRQEDbou3ZQ0FUUuw36pXpAx5WRUPPW8SgAgAKNYPzZVoyiisMO1jZrJgMidYFon8pLPZQRm3lUGmmlGpgpmq39lvn89yS34JIz/COB8PI91sIa9eSilk7KwZdWZV8kgHy1wao2b+wUAcB+VvGEG/A4l9jxtm0XbiZ69JdpothWeQp6Bc1geRCI507GhA4+HbzEOFimarcLWNNZ4wsNNMlviraHDzqLx0L1pv/SEf4jNsQA4CSdINfWCJoMqcFvMLr7cE5QwhNkEjt1zVCjAab67TNV/8uJeSpJsG4hcR3m1K2h+xLMzI89LMBndvWhUTyPiKs52wQ58kKAnvhKtcegIEM7ZIQNAWoSeAtQTYV3lPFygwhNF5Fy60zULAMjDZTt7jASj9YFqM5YwUXKol9lL9bnADKwwwuclbHSWVELxsCTgvcSrFrmH1BP+mNkl8fafnceVCI5asMin6QEfKvP/ydvWlx70iJElO6E2BxbzE6m01B+mKHH6OkMNJGD4mu+HJX867DGHQ/BhirfhgWwfYNZApkWt8fY7ksMBWafYCZfRLRDHzT74ioC12VC0GEax9dBTQ/eEatgNIwQwCPEPB0QkpYb58sQZUiEwSKU1HCocgiaL1vzT4HC3yaEdpfAgaMTbV6KM4wAT3d01YoEoiCdEZGIto/aZfoprkVATePR4ksv2gYahq7KgqyRQwRraRdgKX9DFp2JsJFbWX+Ts66jFaM4dGMMR+EiWzOHIgY6O0KLT24G7GmZbHuh+TJzMRqJFR0HfP764hXMSRjVk2U0RYdYFbpbzdCXflp32HBYSe4phLz2o8LfV4rngoAQkFF/hti+hvtH7+7KDBoJxirvJccpPyA0/oxr4SxIkOmtJl/ZX7tv+7T86h0EMDrDBBhBgGfNQQJo6zt2WbSYiF9bxK0Xi6u652Z7ZdEoLIRQmKaFbCdhnxcYpLlHBhZKEhhdT/NZmpLAvT43Zex8LsYDXBQjCAg1tVBagaIcCuB2Qg4ut5e9aAaRmM9hU5kl3zvpPfDyBWJUm8NS3PU9YmQTQwRrfjqK7GAC89EU/NdhIhJw/WC+PN4aK3Q6npOwZiQxPCTSbpnFW5/G92RqTBc8h68vNc1q71uHf1YSByPlAwrfnMUsQSpe08HJj3mJDPiP33en/11LGAkvp0AjSW2+JVdzZt3HcYno6fX+ECRvrWReKjQ5v/7MdTT9xowzwVyiWEGf2HhM07Jz+KUuD9Ga4vo0Ej5feKYXqfGj7gHg/W2QvIhEVYsfQmiAhPZjW20xtnqtFHOOovATWMjGuIShdql6SepAKU2rWasCzUZJKQQYAsB0lNmcj8z9oR1MmE8YHYIjI2b5sYdPgBXu7zDTJrk/gZEL9ch+Nx//fcf8G4Twq2v/VRH5CBEDlCoKCEqNzDKXO8q1qVBZ3EeRbQumC1YoAJfJsRkmu/trqqu80K+4ftzhnOKyZRQWCU1P46Cjuc9HcP/1CXpmdhEgkG3rzmK5t9lGa4m3Aims9g8QE+yQ1A46mZ/HEOhlpDqfDA471db+7TiGh/0kLVAdjGEhoBZh67xad9h+6BwWUPUZj1eH93bbV3tR+vTPJTsj57It1mRr/8vXiiv80Axm2S0v8rRMcKKocnmrcfGfdrm1i1O717saGJ4074WuvjdW3LFbvS0K0PbE57y+5fdPRDnQS0ngjylwhhjNvW3WaEAOkXi3gm0upYYCt2bTxBl27if+JQ5fVm7wvOjg5w4LChP7LEVVdZDnYyMjzgYxG+MOv0XI+TVX/d71cFAYCi0FK30GUVIHVwhDSOGgEtRjVut6Q0N1fEUkc+XSPIhoDFN88PPtvI8C6ofWZFf74VyA6c5F0glAympPF7AEu++DsEnxMjaixGALGDGDLvI5PuIMZc5TwbkGXfbsxRfRAMFRU7VCdVoArAQXuhfMj81aYEPJHNswDkxNlhi63hTlHSDNq+1smRwO2q2fLpwPG/Od1ey71lRzDypvfaHWpFv+JizPBWP5rEV4NKoHQGIV4Ph47rlDy23sWEnSXSdoEMb4kwl8R2G+dW0CTWv5GMwRgt72l7Jl34SIfitGnmsGxvfAav7fRBxKsNpZGDc9g5EralHztFmEh9iRPhxZy3pv45KtCkZAxWXknSOE1a11qY6GlI1ByFdBEyj7KcB5Y4YmML/CBGwdb+k9mCQIreFIWDI1VofWLkTM9qeO3I4LW/30hTXeKLctDuFspW0NQq1ee5zB2mwlhMYATEKflHyG8InZhI0WwxskdqD38oMEIbaXxPBSRwgPz9FU78n/6jb1ZRzw2Bn0ycBCdJ6zPgcNeQKDKQI6iG7qHn/oLd2YVdv1J/7bJ6orrGi2vCH3Kn5ir+d+ubg2NYYEHX5dQTv5ZF8HkIUr3oucB/gKT6SxzEMYWg5tCitIuSMmCRGI5qJDRqYpO7ntLULzMsGKl6AOFh4bnML9K5q4pHOeSyKDT085WmZvUM54g4rpa+6oCSJjxHQUUyUEWTXiYs7AEUKA8KKBwGkarUpYWvunB3GknwV5h61DXz3G7XsMFG+Ok12f/Kw7pubhAn35Ao+WcaL5Vhu37LWQuMjPZXif1aUW1+VsR6ji0PpSeM2I9Ew81UZgEQJ70QDY8OAxE8eQTOzPvCcvnsiEa/AASpRi1PjdFQk8GJ2m17szHUGyp0FoSReLrCyLcmz1PKqdWWOXZlzYKz+7lu4sGD7SbS/yYJsw0/zRrbBqhRbRvHiDWO9Xh6QsFsmr0PgbC7U0jcBRAUfJx3xPkF6LQiFVeCWO7pgkP9pDgxF1CIwE9J3HXUuCaMrOWxsDwaMinfrla0hrjQ6QpbPrFk9L2pUjJiNvQBGj9krfaW7+LbFJAwzMAoRpMo9MEVKYoKlIIDExIRztLmJ3+uptPWBh7ZBZKDT6N+nFSgaPTzyiAPJ+skZnwYNqhf/2zlKBnXeGBw9qD59lFL/wwPFNiaskVltkc8ZOT7uCHkWcshw9S7ARSh9l10DxwXsGbWZzDnAc4ujAdQhR1xdS4jE0ioJBIm4kmoqOAjQiPPIGMlxnTdX10GZAWJsIShturdG4/wjGp5va0qpaWcHlw4BBwWNyGmS1vUoCzW/t6LYaEW+wapqZ35UP6Z2vd1S3cotIASKOpho3cjFFHoLZe3ESgICZWHzHGkyEBgh4CEM3R+PIp9RjsFeJQLdVxF5u3LZlgrTMQrFA6K6/MGsTBvAn85WD9qbCEPfVhe01j7DJ6b3I0IFhHAqXD0hBH8YKxBUQdMTMJCfiKD0l5sKaZWZVGY3NUG+I066xTqxdvzY9iB2VAe/a5LBsxzYb4xq/YEF2UbGMImywg1lzKzV0RSG3r9KM+j9Pxaw8kMQshObiyAqaOXfpEkvZuD3Rt6CHTF+9C2T9QanVkeQS2CpT2TXdtG5uiExlDNY2Rk13DKs1mx0pektsypg7FlQPEKsMAqqacNf676phaovWZFv/V/eqK921ytui/70sS5PmZwcDOxApl9nRRt47a0giwtRuifAo13bnBKLCMkxsh1RhBFGqfQQzgn0KFEhSs7LZXtjOHyJXOWWc1nsok6+9gYx7LSsj4ZsYawBTfZdG+5T62Zg/NExU7V0rpNcDFrB5dTqiFwtcFb6Wlm/hAr0p0v0cAQklZ/gT3O3/Ij2+sZdx2otb7Yg/ddryHRegRicP+jo5lgwHF2lnj8qwWofwUKaFWho5UghM47/54IZmevvvtZPpORtjLwGyYlxanSMeCpGjjHSmV26tjXVh1iUBmNEd1j5WzCIqF2njZHaP0Fdc0RLzAP7eaC47P97IL3aA9WnLfrDkxnY4qHbUlltgF+zlIU/wVVxdrkM+mZd17NAa6InJU8TQk4WVcAYUA8DRqDGqNTNzs87tSReDc5dWHb1Pka8vhN91CVrBDKoCDQy/soALXKEIJ5ZahoEGEUKmeurWZEKMFLBXj49kSJNwEHvkmkXH9v4NLbAv4LomEW/QMKcX6ZKQjzPqWVj9Zf3tCD9+fWbBb8XdezD4fP5SGhs5YcA419RpdIDCeWYfQWiYbPD8tTcOgx4g0qpyeXVaFrKVCS9fNGOTqy7btvYOh3SfEBsr/PNbWD0My1Sqtmxf1gTI1E/xQvlzBPFFV40vqw/T/dlK22QYnOBu1Jb7Ii4xE8SOKtduTDmBbBHtZEQxuKMoqjEpkV1WygKnCJOkMaoQERD3GyMBPVyQCLwwaQCb09KRB/5OtWDFsYsMmjL7SioPVqFkBYmuN3VKFbCFSUpIUA69Owa+c9Wu+XiZIydmP0UBK/4120AO0FMjDJU8H/gebY3y6g+ciQ13/RAOvNR6s8M4PE6djSWaMM7qsY78aLkjoiZrjJB1dW/nGfUt8KxHxuZw1cbZ8zf15OmaQEQcXW1fXS6BOH5D3gtWoGlbY10GddS0mX52kyH5s4JqJs82wsVy0b3a/4Tg7Vnd/Sl/v+e1FzprTrvO1JXL2PTDpcBPmnrGS6ieEHDTKYSE7fokKeR/EdEldLbAKh+C9LaQM0pxnjEBYWcEppwn5rEu3u4FtnEUIKTCWB4dhRg2M15bALOfTNohQTWqSAP0Npim9HrqD11jeR/K1JSYZInDoRWmO9zDkFEvS7TsNU6vVzAymsBTatbYlMtFCZ7CoL+Q6LR3pKzyk+r/6iFqtkEo/UN9xA59fEHsjJvQObcHkeLTesr8Qp+HHR5eYGqCc3A3idu+23mdLim/RVhU9DPrbG5E70x0t4oq5OHKuAGA/ufKU1ZISUtJvoVO7vGp+7yX0C8rHuS/HIIwy3PTh2N+vOjVM1fe6A+g5UJ3FonupcvoAg8+OGVFyRXrqG6lFaomQsinrLNyNp9t9De2LvimGy7SLcPGDIMNOE+yWFVKmQToxJIgS7/pOhiXeqk613N/n+NGk7dC1QxUuWoZv494qoTAX0MdAT81a9DuI6riQlZyWBameTvfRWN2mUhXF4jbcv233uQ9HVM8rdKDkBEd57YDLgd7NVH7qUOcjJj4WRT6yvckX53vLn9wZkYP3W7AZ0+ljt4Xdh8OeSVY2LdiOjVHosuSwQG5XtxYF9p+o5bd3xCI/Mwtm69BpfRwUqVLxEmxdp/HVXSxdzhbBEQPPR0NoE2vQbAni670YfHe3oie/4YWr7SRG06gHvW3yrj259iZCKQny6LQvFJimZ9cSduo5yWcXsdfqvDWBFO+bpmqJfojwscTchbXQ4tTASDKSiBNOjUzmmLsiNMXSzSSYRbiEAhpSxA48mWDbDdWLQ76iq/T8n0xpyTFbXkRE8ntrKaV1avDRDhYeDnr6qb/mQ2ki5ORfRCt43gL5A8HF2xGx6LBmC/NBr5AObL/EEhwhaMNXU/yB35K8eZum+UndDBxZqNQvYTQwQmIHjV9v7ChhNOdoYYRiGW7bNl/TeYDphWEXkeqJZSvRMmoxnxfYkFBGwffrk+3xh9miGLiqiWqLI8cLlIM7qwd86qV108TnW/qiEFe1LXIbvVLuiuKggCL0wTBS3fhEda/KaKRsoLdLKsC9wGp3WKF9RHSz+DEjlR9/Mcdjq/IRiMQQnoHZRj5ROo9gSGYQeMyYItbBtXCqmAorr4siY8plwV5ddfPxGJnxVhRUIy5VoJ3oAVAAEA4MHMu2swy0VJnpOTuWuQdbsC0VDHGT+LBmbnzh3DToG81VYOqyY/zlsrP3+Z8Xbfup6SOM8w6XrSiGg3aSUrYH+IqxM1Kj3Xdjr0ZJ6ta7P3FiyIYFRNUinNIawIRh3EcyqRtcpe86GMRwAOFACAOzzYGOt1Ys8pvL1lI481qzkSYBaLQDmOol4S40wieGSOlTSBCh3KxndAuFGChYvKa6nv1UytFjnGBdB2nRA2DQhhyV2zW9GJAwOGEjy4Fy3bd0fgzbCsF2HMbrHeSAfkdr2Nf9HSKo0GPGoq3KVbtV9QeOfFrsJZY/JyNLLWa00j7tJwJfVTJZm/M4O5BqRvEp+DGwBKPut3oGSI36px31OV+pXki3tRsWyu1deFhLWT/Zh1HrgV2Ljr1RUbD6XF840LV5Ql5QFosFQn43oMVTS5p8ZVMIexnkiH4P1GRZ9Cjz9nsPiT0OjVZvX8CL6tM7cUzyPCcCnZAMw5dS8ZnB80kcmeXwle1yqtiqw90KAEX9n78tIxxnkJ/p4gjwbkI8n5Q82/ub4K0UfZQKFL9wgVGDL0gGa/IXV+H3I7TR2VEN7QSSU//1wo9F77qX+mhl4uaNoCU7dkgPqNC/FHEIs/kUZ6LTpjmEyyBLr3KHbx+ppuv9d2sOwn7gI4ADo/bgPUPUTjviAog9EqcSi1zK/7W+6gUpXoQ0ykvkVPJjrpYUAmFabGq9VE5Vf1kL806vS96bcHfGctUGumMaasn0CCY4Mz9BILBjk8nNBsjPvSQgjuZtLInyNsGglfOAVuJLmGKoXDuYslx/e+1bwoMMQ4lCDsJRv0rNXfqMbMBY9o6YcbId9lhLzuQfSnnuZnbj7pqemIPXNXNWj0vx1Yed8yP+QvR9X4JdO7Tn1DdcbBHxc0vS9KkT1k+/cI4t1skb+ut/OXYZJUjSECqA926E5UK0O9UnzH8sfQqpcwRAyQkEnhaBt3Yz3k79sHgfAh5aqAgpQf6KRJnov2GQG2pEJj+guL/Dm2IxdiwVE5qBcQzV4a0XiA9w5msl9h1Kh/aThoEBKc9jWkiyrK0KpRVcfJbyLbBrWx/e4I+IcSiI5OOrQCRNsJ8IAb1ktz21so6BTl8VvVNIMCDaBAB6Q9AaKjWSOvKkPSa5p0XLQ/Dpywtjmq9OK6mkfKkLIQ7f5+2O0Gh/+nZGOT6jwh1sld/HExICTNKBFjIMLqd9GTLz2sZ8PRJH6IHsEWHarnAQWgaihnVKdO94TATjfNMUBaV0FNu1ODic+T0a7NREucrAtlf5v+X+rqOBhSe0t1FyND7z8AsOHpDxjQTS5vapS6gpATUOqYZF3IGlr7DZ+8HGtPyuK2cCLiOiRaONfP6XQLnc/3e0CO7rrappoZRUAGQerST8l5hmaFgRu5nj0cQTUgWO+E5Lt6y/JTmabf6k3VziOA2y9s6JT/3UXn3a7VfYq6O4O/AM5katgZAkie06HJWS0zh0+xA9TB7pIszmM9YNm0hw7Rq37DOwmEDkAVCmrAD/l4OhXiZJiyoVdb9foAqM3x7ze1ZmOJfKus6OzShN9SS/6oofX9fQm3bdt/vgX/uobWMd9X2OjPTsWCL55CkJPTmQbmYEIjKgTpHFVVDT019RYDgk9V0NbsgUY1Yo7nrobVfjkTdJO8oQgmEYk/pirpKFOF0A+VjEHTsId5eohNjgivtVeC2/FCrYzE6/J4YnUzLjEZ3G61FhnvNQlWOdXZ/jLDOcxzAgKIOV1ECUrcYy1v7pKqqH/nJZLZ6KtmL7yJHuEXjVBbBjAQjYuXAo1IlQhZNaHIoyDLJ5Pftt9/eRRkMwoq/Oftcq+cLLF8EBDvauLlmambo4Gc+stGP5mDjc88iPldNZuA9q2K9cCnYbwUE16OgePtpOmKubc6kvSB8rX8FpNeMxRR0a8o3eYidGFtAo70XAHPo7iXlHitZbqIRj0WSulXuD2eZ4TcbILaqlP8J2cjelkqV3PHVkDn/vR0rtouYuwPbnedi0qFdAkybyqozgGBDeoSOgaquBeogdOkSxiwqQMKZFDIbnEDD4HE2KpuJ36iDuLfRsiNEkNGkdyTeWroDCCSAdJ9gD/yL9nD7ZVFsdDM8K9Role815HfFmYrhAJO27nyn4aL+drI/3lDWQ4uAqzS/6CzuprAu3/784TY+dyXrsD5MHapXGWA2lbFnPGa1A5Wg1YqRkTSEyMnEevyRussDPKrYaiSKdeqkVqvyzCUbZbRs9tcbdKJ3vxpTdCXuxprj8T3FCQCiS9hUj0UjdDkaLM+IKJZYLJRUuAMpFJx8zscS0k33rSy7/qxIw0Gd7NqvpxKu1QPb/aa9EMpfQaqKXiYZIRJhoD2krrjobY5tFhnokRnYjUFfeOEtGUlU2GMC5vD+a6SEDOm1wyCNf4LsLjJ/QRC1vY28h6UPEfmScdkhcFBOvQG+D911iT3jmXY9qIW6YLaKKL7+hHhxOxTSXhPbvxaEWITJiToMmYFGIH+q7j2BMHnM0FtNkL9qKKV+E5UHgYuCUwSZhnfeF7HPlI7uHVLIkv8ph4ECgdE9/3pDZmQ117hRE+weedjp96noIbuolHBlH+0AeoLJoSzvy8CGVLKmJrqe3MNFV4OQS5AjWC2n4a+PhJBUNmhUCxR3A8+i+aZ1QKU/8lJmkZhFnku5vq6Deu5cAOsvTGQ1tpNkL1sGiXyxEMeOWTUJkfxMWSXv/wgIoFQWK86Dl3tljsjfMrzDQ6vSTtvstVXtTtxbKyIcHUll7sgeNiPXzQlBCVVZQFnlVKEoJOTLhT6++0B9Y7voIfYWNGU+kxYHctJigEgLazM2+CMcBueRYvrov3Tr5kuzva/tzG+0hsbfs8Y1KJwe71O3c8I9fP3/CgvEMwDYQl8HqyHRAw9FFhC8MXdTGtoAsthAQTyQ/MJX6QK+GBN9ToXnztBa+FnGUyxEn5kvRy2/UAJbwrnGc+o6w6sUFp1x4N+4AMY2uf+cKUqVidQV9t7b0Tb3ez2t1u0+9f1wt31Kkv2o8nt/F5KY44lQSCCGIoBR5IONEC9FoEQAs5xTFz7ANfsSASHhXjNBH/DW8xI3m5SsctJ6gzQfKA12tDup3rT0UMvH7IJdNbvoCfb96AC5EpHJbnMAHHVB75mZxtU6K2mXEmRgyLBRMlzXY5NPAcLmPRHY833XYngOk2ECr7L7rgjEu3z7CWXIgvOsqQFoNfsaOcmvp0SDiasmkjzHyGzrVDGRqLI9QKEiaMRXoPwigtBeBbCszGeTcAjGnire+EPmSV/0MIfu9fhp9vurn67ze76uze0u37R1u5uSMDnPzvc6K5hR9xGq/2GIlAAXBEdYoB4YxdMNNonYtTP6BXrdgqozbVJT84ZQW3PvJ2tflCfvPADVfrFYzORtLrgO/X8v+fR2KdFQBe2tvIOuEdw/eOR4gUJRod08m+nuOuutjggne7Q85FjjbPhyDw78pdOEPjdV1e9WmjYwN/GYO7nMwKv6o4UwL2tlndQSsGiizDDCkdOsemTYZBL4DlnJfmAE6JLXUh7pjNpjzBAPUoH/+EupN7VVeWcVwzq+HtYdoIzSaeUZPa6HDjNF9Jcts9G+HyLVvnWX/dLMgCqAKWMqhLBAyyGE4K99PBfoNOC9EGnsRrCi+zrGNgIKf+AokdemZ5qmndeLTCYDE2qo7nnm9wEUTn/9CXBoOtdWzs7MZSEk1sxcigoiUlC5XqEcF1i1H7Uno1hrS96Mtb5u9HkLLeNKVqQpABU/KC5rZEwTMPM9x+HrpdlAJwwD+Fa17UgaFuhPHkbT5whnMdgQgm4ppJLTWNzLbOawvbIqSbseg9T1txN+IochKzMqgJXZGbi4hoN/5rvMc5natXWZirmOH4C2PqO1cEsmGbutWmv/QdoVGY996rYOTPi22Vg2a99LQRIY8B1rnIiRVZtn8ht6XXxK2vDUgar0OSpjrq6PjT3f3ZW2O+Wy/egZf56rgE5rWgqhrdQgCUIeo5I4UyIEpQ+7L2LXCXC/5AWpYJ0DwP9C5aAdvJXC/xyobVpU9G1FQkY7iyVkpQSjDMrMLo6ecJXjKeEouRTz4QBkAhNhI2NttjWbOkqc6SrZiAeDDV+XTs6r/8+hk5v6tg500RgHL/nPnZV2VlIpbLkhV0afjQ1vHMORtov9KCDeFU3oWuA46qGVruaKVNXO7OyMYy0ehs0IX9Q2oftLuVfI+0bKM768SgDurIj3TtyZ9+vTuSoCoOAVRIAw0BRwqLod7GID6Gz7hkA+j/mWJABo1HOYprarosDosxbSCKjmpaUEkShlaA2eoCEmndJkTTxNrjVeCqs4MHQVZna1M+QV/E8Oc8P2uz0Uh/Tx6pyACpxD4QRNoXEcsXV4WyLj7mz7KqwZYBK6OxxSSqDBrsfc2FvO2fFtt06H2nT9944Ds4LqdtSamHikSd633vuSyNAu3g+9dQedXFS0KqRZVb53PEGuMM3TeFWUeg6tMhNmY7olEqFOAxYg92IkZoGZMxVkJ4q4DUfzDjKHU6PitNghz9oo1lQyzubPif4E8LxNJcmQt+KW5GV7ZQQhPREVORm+4AWXeyHOShlc/QRcBGaWBZbxkC0zxjRC6whKvHvTadkXXDBCa3pPoS4NXupZeixko2i0BhdffNlXKdvtty6/qPdNrLnqs46l6RlUOghWGyK+gVdj7omEcQB0yJ2w2ZvdBmDHjvqGMIz/ToEeUt9rIn7zQNPEnnu+MWNyK7wvHGYo4nkkrbF/bAhBOolJYF4dTBWX0CDHeNBl+Mur+8dmf2TVEiuafdDzwow34Zx9gYit8ZI7vYOpzk07LcA8UjrZOstgHR1Q2T3AkRDknKkZJRd+Qg1B2WrXo8YgjRQYOpZXPfDxfVueHe8oUubppOhvTYAp1W4Fc3+3whwUfJCV3VZOriyLy3C3bY2XOxAOpAAj/YOOjaAqOuIw9n7MxhakQeBfO14CkVSRSSx3zuTLzZqAbn7gqGxWaE9JmzQ96TdTTG8TgO1q0aiHVPztpUuQEMijQB+/YjzgGrq7zPjuggoflRoOdOpbOjUJmc2PgDU2BkIO7sl0gLX9fvl6jd6w627tHd3Y6u4YwC6PcFJgEeSl+Qgu0Hd6ZAW8Q0N5HYEL44F3fenR3mCp7Zz1CJ3XDLwWHq6034HCL/uG97IRs320+vGo+C4gKPzNtOAv+YwX3VvCfjDahnlbSlRxKzwaG2qviccTh6S+aHHafFY2OA/GYXjL8L6lUbnJ4vyyNih/2R0kbdqH+ulNpPYr19wsje41DEGyJ+0gHlLaVjacMjW1h+lnfV3mBR1HwPUH9783nf9S9qL4vZohDUHyNrMn6NQuhzPvZnvH9cp2owDOLGcb20CCCeqofxTkseIJPa6jrH9rt/yo5WQ2hNFDDxa1akCuJhGltyQ6w9c23yyJq39MJBPbsng28I7lgZY+pAbuZo1DWmI2QKngEDPZUNQaLwirfjh6qiSYjrqtVma60fe9M+lNW7478KqYYaW8ak8dO8/o+56OULJN3nfDrvoPqrBLaQq2iDO3wVtMk+GZoKogAiGiO6Ufs+see9Ik//quQ0GDpWIvfTwXvpeA/RmI/T6n+1TAAqUvfee9ogYmVNHNJN0TR+QIHh2mzluy1yfU0CWF7ZfDMsi74SRCs2elVQt/NAgNorv7eAmb//aBMNLu41QHXC6C4pG2naufvfa+3J9SnvzcE8EOtepCRBa/5WiuGFunK0oTqSyQhzcnk7lznpKhJ5havs0CArm+1aAUkRIOy9f6yYfaZc39jpGYisdKGuWAdtZRTHPacTGWj24tiI6RlzQTc9sp7vtNneNeZQi8aaOSvh/A9Sm175OmIYhRnMAJe3xaEB9ifRaRabfbbXaYTx7HEagQDK21CQ+yTm3XJrUDr0fubVjJyBFJtrTp8KZgL+6mOeNuNhO3et0zF3sVgfHL7xPRv/Tdft67zSawwAk1j2o3l8nybcI9XSvurK8KAzdmZFLTQ8BlGLc1R8voXRpllIrAtN84i4tqlXd5Ax2Gcr1Wm7sfru0QaVOWnV9DxU/O8amLmwyEULJEe7jHljRcET0NekoKQbuWOdB+0f0Rx4145rFwMFh0f5GJJcaFHGFAWrLn2RMytAHAGYPeLsGF7+4rqNRI1Nk5ngR2e5MrqYsasWXCR399V81vFCKlFazYi3GqWcAn5w4BwffJOFGQ+JtBgmxnt96ne7p0ha8QMAcm9oH4TTc4arcBK1EcQdRDPmTa/EzRocSAN1yploubq1+yparNqCKWrvQxJ2AcJMiTyTkzVe22SUDy5VdTjyjdq387Q345U83uD+cWYLIiVkVQHZ7dbzVjEaeNqvJoV11PpvWYP/0vGaga3L3YTR1TZtdF9OrJjPaeC633nOdaj5m3IJipJ5n1og//YY/1U8ZK5VKAuz2kGYXUcfqYjg2jT5YxGXdfOVBe6h7uaaLURJi00bbL+rv/Gy2SBDwAURxUMYMSQmcKMqE5VvP6QsN2pQnmVNzCDqdrNi6K+/lUWG7oiyDloY4OJQKzXjEdCoTiDCCl0LBmqeAP41OS9zfxFsVKxJucmppW8LiUM6mhXJrT7uF9vXjVlsPKME0DWYDWfDInoFl5j2HYWt10eRTBGsWF9fWtmKNUIFCkywKrN48ZEvRRHpmr3MxRO/77XrIjf2UUqidMVR2iXAkEGfUNB9Hs/vgfj35yEYkxeYK/XYKExdBDkcGwEUxKGfRPVvFf7RfAcqTMtXVs47T4A86tppXD5ySCPjqLS1/K8OSA1EY1WO9tqlntYbbHHt7v44RBdkcp0tCGCr2A+hM/PMpkZEwRep2BSA0e8ipFerWU2SiJKF2UpzONSB5XpUWPmtowm6IAK75pWqNLjaqhGRYdT7MOkqzcK6qkXKyHsHX3q2iauEyNJSM2iNCDDnielOeRjoEf62gp907FZaDGBUF1ZeQJNmkCz49SrGE2lMElGyqTJQocjFzpaMSPUQnU/doheOO+a3P0WGhEeIiYqMFW+167EgEUSjQQMtPsCsOBg4k3IMGlgtAIihtNs1Rzk/BatutBx6bhZGWTkYD5G/LmciLnnJKnY+rWACc4JHK6NrsOOVKXgQG2KGJsvUD5o1mwUsMkNd26/W+o7UFKn0GNsnI5WEJfvcqLqb0V2dEd+LBbdiyZaX8TptgC89VWltBFSMSnJ+gY9vfUdRhwu4uJL9HJ8s1rFWMdc2kU7Klw6DDMiPUow1Q61irZG6zKw2IMIMCkMZNtHQ2F/if5lahYdBkD/1MMUGXLm2328uVE0CtMAa0iqj55KR6HBPERrOiPl0MwVHsvuQzGpqRCrqlWYlFW0I5zUz1GFWmmrgWwVlMO8TQ3KxVCJsKLUYj6SIHeF8q9XiUUMnlbXbdNhWAkLGa282rZI/kGVxSB8y7vQyAUXsM1lW6MdKRVfwxgLX5bwKP1rbnjOT9/93o7vlno46Jd7pLDPcZyZdhZpkAAFh743GLYNipBbN7qJXGOXg2Wh/5PfU4JFMFuANhG5iTMvQFALMUeoVq3V1dqFxuChrAjZLf9D0t2QB66HsC/R5foELf3YSrFdB+YdRgObgWt14Uquz/Djs3+J5GF39pGr6Dm2RSgZVe7DjdUy6pi+3hP80zHOePXvtaE0qWTkmpPQAIzAprIjm4j4Cu9Ny0depnvmt9AJDvfQYo7vDlPsNfVx/EKTtwLnxvKDjFmKtDYqKIog8hG0ZQ4laGpxt+TXKEADNP+h9pOMAlgKgIKww2blSSI0wmMKH+20TcpqVhGMBylACndiQ4lmuHa1tF7pFvUGifx+Sw0GUBbH7LCldyLxTI3z0kOIH21CnTlLb7oU1U+oXVYgVoZETgKY30912VFdHQUvdyf0su83UweKav+Zzua86ZvnbN9bUT5/ranj7OB91wmqPAhYSsxjDOyliC056b6JgiV1MwBVovF/nbGFzs66BZ4Osg5vuacaExXfOM5uMCo1kzfW7jlvtnPhqoDXP8KLzFAqiu+BSAAjC5J7MA4NYnpyoZ2rX7KYY86aM8OetzlOVxLfgDYFVL/h/cXT7I5PPFNQq/1mhAFYqWmuQmCRIhDN3aiaeMa0AjP0QEj44ftqotxaGVqZHBWurvl+MBCAEAUDsIoyrCPSLCzt5NbbOA0pXWfd6RInS3J/nVeHLemkvx79SnBIRM6a5/XXIv3aamRg1DPMXPUsReYGokY6m76pqc2uUqXShs7jDHIxKbvaV6+EdTUo9NQ4pfYrIvkeSdqST3hrfxL8kk0m5JIq3WlF5lmptsaymgY1UQEfQqGFgcHYUKBotg4I9C7jiySGgEL5qy5e22XOgHQ+8BcjhzoiOg60JcdMJDIp2QGUc+x5qJ9nLUZbuWGEISxyvaRcKrVuW6nHF1bcA59E4diMhD4BgGBwg8KoDD7uKH3hLBwwI8/JYIP+QO9gvwAiZKJ6cnDg4IwOmXGt1CK69DCJvCnMfH6DCGhwXOYYQfxuCwwDl0cwgcxgGHccBBxDlEiEJCeFO9Wa9NQlhR4DEptYTTIE6OV5P9rnHzgzDr3omUNOyKDifR9clMGDqNW2oTqb9TVHjJGLE4XWcwCoIh6DG06hhqBOSeEbyC4HmMsjGuXc0sXbdbCEVvUFqATkVC6olKlapeBSE9US0B6OMR0n68SsnbWFdOqakLB5Sntl7tciaqPlW1UlUqVqxeHSPbye0Bxrhk1APGEie/dIGT61MzPzZsXhAK/b6GiL4+FGMCaCnPTzBF9rdNUmg30G+e08/Geo/p8E46rMSwiAblGdO9Y4rsYZLpWb7R8k6A9s4Yny1IFJ/oai6sVlY0jXJVsuN5HSlJD6yJUGWlxpW7+KO3RzEgnAIuqS0h4xW1OxGhdJR/3ozDCohhrkiMv297mC9HfAZAKS0/OSU0Rpd8NfRpuMzwwxxO+BdSSW9w3dtQ6ydl31vugeeqVUgiQKyXt13GsWJ9XrfDJxq9VYxc/+y8lNZjQUy73fl1O2muDu/YNYaYIpGG9wWqL9yjpusawSRLFhKP4qzk0G0CEPYDpJsISyRVec2RIN3QBsdn+dWknlLy1HGTT508sS5yrclLClDEH6Bqmy8VUGDMYSvlAXb5Dde3an3SLDJvOwpjrjGTlKuD6yWiYcEjQEm32IWVKpFnG6HeZIL627uNUNv+gSPi/7iQ9Cl7yJeVIPYeJfXEU0sakoNLIt65YYsFiwDS6oYoauHtbIzcdwTlVUmsYcdAqJjsgvD6KQbP9o/vG/ow6ZUiXafK+kKwfgUPgtlohFUZ56UfqHCwWTEmlOJMit9hQLDJpOg/O5HxoAw+QRFayOhCNLTiEbheBEQBqg8Dz05ZPl9GzznEpOLvVdZK8FQHC/1MgyF4sqMheICTI+/cRxvE7m/2CpyHVHZcTX616OCnoJHRVSPVmKFQNHjpputwG6s/Elob6Wfa9sZGOEcMzJqCci1NzdSJXc7YesHdkud53goeuBevMKdUNVi/gs0EzF2zsVZaP70CWLttE3gAIpWMi8/rgOCKcgifX9Mi3IsMi7O5HfY2/wGwiYZb1wuWCYxe/y2JCDu0iran3cFxOgXGkgzDZu87a4MXgl4fgh18ZjPJvrDpvu/dQS/D2XQRbKGBmhJ2iqZShHUZulQIChD6wMCjlfd2LKiOhyFj7TYEgWChZABtzx5KPQAuGfTrZDAguNKk0t5Rwxx/CM1PBhQ7uV7pWd5A8j27XmJBIE2/tofWHJwmUyudUkuKG3Laa5x5CdOBr9D6IQcdBQVrTcgm/aLrbPvhavXPxKfHcZ9XLrq9TszDw8/9KMPIr8lvZG8bCv+LA/QnJtlVAFRZBvLiderWI1qpeDVvdBT6YBK1Z7hf8mBFN6T0eFNHaKrAXhYCnVE+tHVT1UwrnLT09+Vg4d4cyIURWPQHpILZ6lRdiDu6XvwNCOG3lZ1fiyElNTnWy9ajyugFegjfLvuiCnHpXUi1qmlUudFL/iUtJfno+xjyePhk7g0CjmHoYSBdKSo8TzIWuZ6qU49HQYQwg9Z7a1STTinuSlizlkuo6rqrIR/nAQu5TVL6TEqqmTy/nSvv1NKW72tiDrqfBydWUAR0bIlAMTkt2UfEG+W6//WIEZep39Sb0Hi3zHc43tjsNe2aXElVO3ZuNOEk+Jf6KRj+hYFdPkNTLQAC8CDwvCAIXB4IuabglAAQsGZjICBIuAAmx+scqnRyI/cEE5zuhOBchaFgu1Tow2nUN+Dw2k067ERMuIjEopDTxcfspC2acjL51qblCHdslbUzPUUYMrkKAmTJcV0jol3Amiiq+CGndCeklO/tg/tSAzrpdbJiK1ffurH73Y7HiKvYEbkLP7gDP61RQsCes6+ZXP5MD3d8hnXT+lKX9vYc8VYAgPrBiA1Q2AmgUmb0fKl25OrQP++WHT+8YV9tdYyb/7+wOpG9ApFz23bc8wb88iOErUmZWGpUdqk04cfEE47aSrw9zhYX/9r2hKprxqvQu7+qCh/VCLnpw5t00TsrU7DPkz878D0JRFgiWUwADq4TFuu1c3X8x1UDLmCp6VdSS5cs+UevXXuyKo9WCQOeUH5CB2Mh7Y2tctvv/bA6BJc8aBw4ELyE7zk5J5LZGSyUdp+wqnv2j+h0wQN4HJaegieXvrxKGRTZ1QWQ54lfRCALQ/u2aydW1WSF90IBAoZINUJcqUd0SU33DUfTegmMZc13SnsMRUeyxiPOI4/dxB236cr3NOwoItClSBA0iNOuixCaBJaL5EMvdUt826kBPXTTs8Rwz2OiaqqrsGvBuAs7ppRSAAQ9hhVOinp3Bb3wIFYnaY9D4pKt3wvuXdGjV1Hkiu62pzpKaPR+W1n+/ccXDmFp2k6qUINwhTFEHpLakEOmW2OtBZFNNrMCTef8iFxtSiNB62jy4voU2PbCZbyU7yiYATgvomWbufJxeebuS/dr08qd2C+BvIDwIzGwyAUliF7oQvotEJmJsU21ZbD0KGhokbTKUKKYSv2/G7xzL+NuSMw3ck8AANqbeB51xG0oRLofBfu+jkCPB76UAoAC0BrWmw4/uf592yduJdeBDPjMd/QTTWRscEn/KnJ9O4owe50R0aN0Mu/AlMlqsNSASCSdY2Jir/9QrgOAz26tWPFhVczpyQTG+ddt1PnQUsDstlwbcNf2qpiZ7zDI/LI9xKCUDABq9Dh6+NF2Lh96s8+/rsHwrosNaIieO33PC8na8soDRHIFA/eqxfs5kvqWh9BxSNTFVzEhGEDAhedZEVAoVBnjwAFYEADjo6OOeVIkHBLoeYI5vpPd+m0s9Afq4Yip1G3vGwDACk98Duv78GrDa7tTCAaYO1Wnh643CMF7ujYL4fhrfJZFc+90mw+XsfxGS484xnXMp6vuiR9j/xsA2AmKbE9PZ0QxfdGxzqR+/a0nOyyG3EhYFey6ZBAke0pE+F0rUvT/2QF6fBnb5dufmkKZmmrfX/xZCIDbneoviFybIE+wc2H22hBvgFjhZwzz//hUAIhAnaWkBNs/qNswSrbunKhK5l5VVe5TnbTkn+ogr/6WX/g/mxFtMUNt+0R6Rf6vpIr/1kNayrk1WTj+NEtHEcYgD/MPctHE7yGgBkH7NSsnVE0sQzeu5SELEmHJg2gg5fw9gYg7x7inttv298Bxle6IkOoAToG4/C/B+GJTtibA0j9mtI7fjgYglRAg1ogHp4LOE12muxi/tKwWd4gLSa91hPjX+32Ov2lS5Ba94n/HgOCBZiT7vciJhdwoLUeZKMiCnRyV+KkEL6uYeIAEp2ZnCOuI9BkIS5HL5Qp7XNwDp2LSJVCXqkKAPs35lk+4+QTnTnhoSi72ykyCwYmQbmEACAi0JYW+Aa2edJESJzteAaCUDb1HcfPaix1Ifog9gueWgnhpUZIeVtZWcEo51wXL8DzqZOmTSDeKjZHgmZ8Xe1htnOytVpxG0P1jUVKKSFbQS5aMH50BCxGxB1bHqyIEux5dphaB1wW00RPt9oQZCM8k4DFBlRhZBKrnreTcMTDwBHJxTyPpBLdFTgIA7NlkRvzHB+STSttTYfQ7wkCMDrMAFfhv4WOWkt1rVo/du0mP+YsguzfTqWxwMQ/cKCTavIBlOwfl23osydNumi2gvGOdpkxK3M9EvFAA6TNLQU2wR7UlE9LChCNK3DfZOcG/P5Xo39ea7pNyoE+mx/mW7Gc0aIMAblxKned1SqR1cKDnhpb0OT3RaKY7jgdMJ/8fgLDRllmh6m8AlfymVvvlP43fYz52jwz0EIHSNWOYtVvDS4sdp96zzAKenKXrwCWXsXKc1Zh1nIkbplDs0vrwJryGHlmlW87+VFR3tWkOAgVCoIlJWUZE1mt7XhTRcUTTteS1vSD6e62WGIlCz2wf1g4vsrNpv0aXE2f5OmjPDm+jzA02UuYH8KxUbAD5MQZ5tQjkzpW/3+wSC3qYtS62n60nwYD9bfwievYJTMuKYG76wTHj5Ya3CBdbzzoEikH2ZTXFy/osecz/VGiLeD3emFKrwoueX1X7sczHcL/DdMOQQHMtUwqqK9va+BKC3JMXxgil9g3MW0dhCQrQ526vJRFMAveZlYiuwpZad1RBMB9F/IdcRCzMsH8MAKCb5UYBctmQRHl/VHQ4BbXJUDraqGkGLOy1kwm+Bwix+8rWQurCb8c7+Vua1x3hKfbvL5Ue/5R9RpYKtvYCWz/HKImwXaLA1HzPOgc6hPx6w/BM857OAzcKEbBs9+ExcPRo3STNqK9MA4xzwFW+PifvSEacIZ5BPwnoFIIm0hrGfuPXzgl4qYtbWR+42JzIbAyUGFgjkBu7n7akCfRzMMO6fvwHABh+8Y9YYA8MyD5+TrR3yW7BsBpD5dwxqnmpGw/8YWYAwMGQKBIcOmzHFzZjulq+tT+pgmuUfACd+xiQA9E4kgZEoJDb+sQl2qazusrIEtRivWeu6ONGGXVqUXHzvDDz6X4DPsyyxedKbbvNGokqA9rV4C+vYEm/kRnxi5Ga04iTf/OXHk8hf96EGmrslROr1njNBPnhxi65Z+X31C9Xb775j1I79AUwN9Gf/ZvfjXq+YdCgT9T2rqTfyaiIH7y15tScCWrTe0wGcU/ieFsFzHvGIsIaUg61/1ZAiVq6pE0qHR8w5z0N1klAHIrRJqLpRIxLc3vs6mVqdV11R40rIkm8mLhh3uomlGLHUZCPkpRrdfCVNVIzzvr2rT3azy/yaTPmA2pXewyXC/gtGqJy2tv+fAylALkaistzTEVAYtw2KvJnZUm9A9b9rM52VQGizgzbSPpH13EooIKWv9YM+Z4PqNVACCdqv/U9zjYJ90SdO9tHJ8KfGBrh19UMQGxBALEETeiDpBlNjgFuzI27zN+WK6J7r62v0vB+9IS3v+6Edk3TK9g1DGRciq7riR9z7zhqyiuS/rBm9desYkfjVkgZWCBL+9/IfChkhTbIbLhzRvJUHfwr3RGvchGNyKVuvd0GoDuBNCGNMA1LnudHwZQBYqMe0aycTdy9UO/rRlxBnIoBIjqFcxNs5MvV56kMYNQK08COhl6jV/U0Jn3hzsk4NYa6zgVQQj5eioCL7drtKRUcGHkEVZDEeTpS9uBIrl5AizUcahIt/tcfpl6IBoPYg2qW1PN0CD6tw0B11L77Tq5hISJ4yXgAQJlkUcQZc12XeuN1A9QmI8KtZiP+bvTscmds/jsyQ26pMRMrhtQ4MW4WZ8LGt/5L7/LNc00JAOi+G6/Xg5Z3TZLzBIlTGFT9DSa85Jr1EkvGJTw1gS4GDInvdsv2VpT2tiYBk1ucCiB3hy3qeaZIUoygxwq0q/5TDefr9JBH/AoDyc9AcTxotBCwVatKu4Ib8coqStmK+jcE7RKPuPjdwpn+nSP0n+2V4CbsXjhuhPwBcm26bcCwyiE9S8ZNQkRf0JaUYVX1QXCPYTmX1xije5oMMQGQK28O+NZUN9/MrMXgugCKBKi+QpR07/2FpqWk+/sUeYLEL7jZ2bWJPJ1Y1rrH2kU7kgQYVfJvih6wetgrPqNSFiDIGoSutHtu/2cY6Mi6bXdchGjVNe/KwkePgoC2dy1hrHsOtClbrwPU82XoSzWlk+GHOCJ8vaOV+AD2xUC95m6iQNZTc9y6SRA4d3vWP00hAOvYj2jNY3I08OInwDCWAVqMmb5WXR7lnbytiVxkDHmPBNZgYGakYVKm7wXBSz2V9oEtuwgDX8/oeBaMbknHdblekvwFc02jDwbrm/2QOG/Uirajes/8KRqXqoASrDg2Y/5c08pzv1SYlrwgknDMLUwxKv1V9WoplH4UM/ofFfZwBkX/ohTpZ7WrGtHqS9C+CK/6uHzKWP83bpa3xakSGHp9gOVuthhLvYwZ1lPGUI9TGAxrbkBLhy4AdDPqOqNzG2PdYk0nLDGVkP82kseM5G1C/iUQ17zIZd4Z79JtrIyAwY6Yiquz9zhb510nbN6PQ5tsHZc/Whhuh4zOPgh1Resa/gBQy1a8ZEs8T9OWvJmOAW2vhMHxnhIKFx0P6LdCDcTUYIhIvpMOPcIBDxpOf1eNnJs36PTXYuSDY8Fdb2ler4HKRDeN5kdR5fWNGOaL0Ad6ejo/ri53UuvpeYBbox8GTGpu0fD5AyjWJHelnlUHlVa80/Va/E1Mlrjb6ExLL3Ileu/cpvkDnwWclsZzOta+itR43srdp8oc9cjLYTpJGEChZ5NeThSCM7sNpEuTGPAiMYxWyw4zkPTjr2uAXv+jPsc//57lEtJuPiHmtDUxwTL+6M+rYEJXKaWHNzMi2GyE/Jce/s8cSPisA/QlOlP6k0sTf+5j3+2cp2p4bKOPlydg1Fr2ybwn+926SRD32S+93D+5Deo+uiv5g517T5NWhS433+vK9C1k6qwmVg1MdfYZdk0ds4MBQFlZqjbQoAtzof2X9XIX67HxeELy2MPowtkKnv7R3pFkMGiKnUuOL8D2PlyX14wp55cVDRW3QflaEWuNSvI0syb82/v+o59qRrjhgxHklRBklX+AIvvPCXSPiYBLCzdJQgGu9AhXmYmLOCMU+sVRE7+7kpbxyop69pPK6Vn305voG1e3zTq0SYtd25O1ht5IH98s+skVwwk4Wkx4bY3rMNkQmwh0s3iu3n0jqn0J6pg/iwfiVugzVsGXoFfKjAoZex4wYoOhUxXQmj+du9u1lIpsK2f607Yemp70dkNq+eoVcS4g3gi9wdZ4/MKx1zaigBPHgGyBOBwyQ6hAa//ynx6y/mfvshDvdFT0dQboLQbILUbILUboLYhwBGAjjlOH8EKEW45BEYX5Rm6Wd2RvIZnfcsM1VPzTvGhgANnBI5Y0yYDrgji6S7HNdsWwmJXQyq58VZ3KWd3C63q5diEPqh9zU7KUfhOWPEgaqEeej589MwOFrktJhNPNYtEFSyJWgYBmNxqWLA8BleWh02KaLC8QCrINfkJEs90x4FTjR/aCOCO6yY+Xx2owoEjrGrFApM9AY7ugY4uInhGrlAw0dCCSHYQQgSR7TNL+IRvIdjuqI1luOtY8MVW2St5Ph+BVJshr/t4v+bAk0PIMtKhkFSFuG4md3rxZhJjsxhmUy9bn23HJMzPb8MJGc1mgrYHnRnfWaXnHOyLa3eHuQMP7d4CeuOmuFgOQCSeECqPTwyqc7JBOgmDYCqyHS8Vjqhz13/iWNOpys+B0GSDi5YngwHweXvphtyNxbADHU8Ghjsf50IsI5/8ay5xkTUXU6Nip25F5cwUkg72fde3pVgZxb7BvXoHJN+xRiMV7Omv0zc0IH26C90QDsU/24U3tUcugbm17M7tNndxsTPG0NTG7zdEdWReEEh9kgUvsE+bokD32RDJxwHOefdfBrmRgiNiHV6FucwecFQePzgZQXu1YqLdfvTK3B7F60GW6glB8g1HIZiEMxsCAoTivdot+/o9eHoM6xpmK24WW1tpNutqTxKzvF91zKl3EyBczMmA0ncpw+MMfHs68vOMTVxS1wOaBzk3Zb0cSNO4Le6z8CmN1D14M60pHAWdKAwA=;" parent="1" vertex="1">
          <mxGeometry x="670" y="310" width="60" height="60" as="geometry" />
        </mxCell>
        <mxCell id="xLYYazq6a6-ILcx5yCei-24" value="" style="group" parent="1" vertex="1" connectable="0">
          <mxGeometry x="260" y="110" width="210" height="60" as="geometry" />
        </mxCell>
        <mxCell id="xLYYazq6a6-ILcx5yCei-25" value="" style="group;fillColor=none;strokeColor=none;fillStyle=solid;container=0;" parent="xLYYazq6a6-ILcx5yCei-24" vertex="1" connectable="0">
          <mxGeometry width="210.00000000000003" height="60" as="geometry" />
        </mxCell>
        <mxCell id="xLYYazq6a6-ILcx5yCei-26" value="" style="rounded=1;whiteSpace=wrap;html=1;arcSize=50;fillColor=#CCE5FF;strokeColor=none;" parent="xLYYazq6a6-ILcx5yCei-24" vertex="1">
          <mxGeometry width="210.00000000000003" height="60" as="geometry" />
        </mxCell>
        <mxCell id="xLYYazq6a6-ILcx5yCei-27" value="" style="ellipse;whiteSpace=wrap;html=1;aspect=fixed;strokeColor=#0066CC;" parent="xLYYazq6a6-ILcx5yCei-24" vertex="1">
          <mxGeometry width="60" height="60" as="geometry" />
        </mxCell>
        <mxCell id="xLYYazq6a6-ILcx5yCei-29" value="&lt;b&gt;StoneLog DB&lt;/b&gt;" style="text;html=1;align=center;verticalAlign=middle;whiteSpace=wrap;rounded=0;fillColor=#CCE5FF;fontColor=#0066CC;" parent="xLYYazq6a6-ILcx5yCei-24" vertex="1">
          <mxGeometry x="77.36842105263159" y="15" width="110.5263157894737" height="30" as="geometry" />
        </mxCell>
        <mxCell id="xLYYazq6a6-ILcx5yCei-30" value="" style="editableCssRules=.*;html=1;shape=image;verticalLabelPosition=bottom;labelBackgroundColor=#ffffff;verticalAlign=top;aspect=fixed;imageAspect=0;image=data:image/svg+xml,PHN2ZyB4bWxucz0iaHR0cDovL3d3dy53My5vcmcvMjAwMC9zdmciIHhtbG5zOnY9Imh0dHBzOi8vdmVjdGEuaW8vbmFubyIgd2lkdGg9IjE0LjY1OTk5OTg0NzQxMjExIiBoZWlnaHQ9IjIwIiB2aWV3Qm94PSIwIDAgMTQuNjU5OTk5ODQ3NDEyMTEgMjAiPiYjeGE7CTxzdHlsZSB0eXBlPSJ0ZXh0L2NzcyI+JiN4YTsJLnN0MHtmaWxsOiM0Mjg1ZjQ7fSYjeGE7CS5zdDF7ZmlsbDojNjY5ZGY2O30mI3hhOwkuc3Qye2ZpbGw6I2FlY2JmYTt9JiN4YTsJPC9zdHlsZT4mI3hhOwk8c3R5bGU+JiN4YTsJCS5Ee2ZpbGwtcnVsZTpldmVub2RkfSYjeGE7CTwvc3R5bGU+JiN4YTsJPHBhdGggZD0iTTcuMzMgMTUuMzV2LTMuMDFMMCA4LjQ0djMuMDF6bTAgNC42NXYtMy4wMUwwIDEzLjA5djMuMDF6IiBjbGFzcz0ic3QyIEQiLz4mI3hhOwk8cGF0aCBkPSJNMTQuNjYgOC40NGwtNy4zMyAzLjl2My4wMWw3LjMzLTMuOXptMCA0LjY1bC03LjMzIDMuOVYyMGw3LjMzLTMuOXoiIGNsYXNzPSJzdDEgRCIvPiYjeGE7CTxwYXRoIGQ9Ik03LjMzIDB2My4wMWw3LjMzIDMuOVYzLjl6IiBjbGFzcz0ic3QwIEQiLz4mI3hhOwk8cGF0aCBkPSJNMCA2LjkxbDcuMzMtMy45VjBMMCAzLjl6IiBjbGFzcz0iRCBzdDEiLz4mI3hhOwk8cGF0aCBkPSJNNy4zMyAxMC43OVY3Ljc3TDAgMy44N3YzLjAyeiIgY2xhc3M9IkQgc3QyIi8+JiN4YTsJPHBhdGggZD0iTTE0LjY2IDMuODdsLTcuMzMgMy45djMuMDJsNy4zMy0zLjl6IiBjbGFzcz0iRCBzdDEiLz4mI3hhOzwvc3ZnPg==;" parent="xLYYazq6a6-ILcx5yCei-24" vertex="1">
          <mxGeometry x="15" y="10" width="30" height="40" as="geometry" />
        </mxCell>
        <mxCell id="xLYYazq6a6-ILcx5yCei-34" style="edgeStyle=orthogonalEdgeStyle;rounded=0;orthogonalLoop=1;jettySize=auto;html=1;exitX=0.5;exitY=0;exitDx=0;exitDy=0;entryX=0.5;entryY=1;entryDx=0;entryDy=0;" parent="1" source="xLYYazq6a6-ILcx5yCei-16" target="xLYYazq6a6-ILcx5yCei-26" edge="1">
          <mxGeometry relative="1" as="geometry" />
        </mxCell>
        <mxCell id="xLYYazq6a6-ILcx5yCei-35" style="edgeStyle=orthogonalEdgeStyle;rounded=0;orthogonalLoop=1;jettySize=auto;html=1;exitX=0.75;exitY=1;exitDx=0;exitDy=0;entryX=0.75;entryY=0;entryDx=0;entryDy=0;" parent="1" source="xLYYazq6a6-ILcx5yCei-26" target="xLYYazq6a6-ILcx5yCei-16" edge="1">
          <mxGeometry relative="1" as="geometry" />
        </mxCell>
        <mxCell id="xLYYazq6a6-ILcx5yCei-36" style="edgeStyle=orthogonalEdgeStyle;rounded=0;orthogonalLoop=1;jettySize=auto;html=1;exitX=1;exitY=0.5;exitDx=0;exitDy=0;entryX=0;entryY=0.5;entryDx=0;entryDy=0;" parent="1" source="xLYYazq6a6-ILcx5yCei-16" target="xLYYazq6a6-ILcx5yCei-23" edge="1">
          <mxGeometry relative="1" as="geometry">
            <Array as="points">
              <mxPoint x="610" y="290" />
              <mxPoint x="610" y="340" />
            </Array>
          </mxGeometry>
        </mxCell>
        <mxCell id="xLYYazq6a6-ILcx5yCei-37" value="" style="shape=image;verticalLabelPosition=bottom;labelBackgroundColor=default;verticalAlign=top;aspect=fixed;imageAspect=0;image=data:image/png,iVBORw0KGgoAAAANSUhEUgAAAOEAAADhCAMAAAAJbSJIAAAA7VBMVEX///9Pdrr6tRFJcriGns0+a7WQptHp7fb/twD6sABDb7e9yeJIdLz6sgCPkaFEc7+6m3A+ccH2+Ptafr7//fdVe737vTD6uSH804T+79L+6cLR2uxtjMRlhsI4aLTJ0+inuNp6lcmZrdTksD/1tST+8tv7wED+7Mrb4vD/+e394Kz7wkv7xVX8ymeNo8/y9PqxwN53h6SNi5Sdk5GpmYfAn2fLol7WqVzbrFXhr0nkqyrmwHBqgbCwmoLfrkz8z3X93J/BoHKgmZKPm7fprCX+5bTo3cZcd6vIzteHiqC8u7/Io2O9sqP81pH80YHakI9VAAAFdklEQVR4nO2c2XbaSBBAW5IFSKDIYpGMWU0A4yUxtvE6sZPJxJNJZpz//5yRhDCbNhCd6u5T94XXuqe6q7cShCAIgiAIgiAIgiAIgiAIgiAIgiAIgiAIgiAIgiBbUW4Uu72Pezsi121ACy3T6LVUVdeV3aGrtTy01RujnKQq0s5RKtBiAY0mDT0P/QLazWNEzU+SatByHj16fpI+hrYjJF/RqflJSgtazx2hbXoJdOtMGdqPjCgmkAnBhoqCGQRr8IKdNk1BBjLYoTtE4Zf6ouhDtCj6EB2LXkWFF+yKPgfpCjKQwZ7oywRdQQaGaI6moN6CF/xI8zSh5qD1CNmjKKhLDNweHtET1NUutB2hKKjoUhd+BtISVBRdP+pAu/k0lwSVUqlkelgLqBvT1pu9BgvpI3NBxRMrlVqXV9eT/Zvbu7v754eH9x6Pf+Q3hhE5l3JL8eUs6dPV0+3Dt8IysiwXjFPoILPgCiqmVXu3/9CfGa1gyAPoILNQrphWa/Ic7uajnVWhg8zChWReP6/ZOR72cDi0bbvwGTrGTORrk/5cz7Ed23aGQ8f7mWXwADrGTOSv+4W5m+048iraF+gYM3FxV/Dt5hlbE3yBjjETA9lwQhMnimBdcyJzJ4ZgwY7VcwW5XufJcYKeK/gKHWMmBgUjQdDgex0cJPnJhg0dYyamgkYhjhPoILNQN2RXwXm8/fPp69W7cP7KbUhvPIL2euPYTd795LJmmf5xMILNO7naR9BmAYfa46RimaXd31owceNEyMu3H5ZJp5FE2YOW83iZ0MjeFBb6nMjf301afi7Qdi7/qNQS6E5DBorpmOYTvcrAzSjV908U/A1Qff9kQZDq+ycLgnTfP4vQenTfP5kQpPj+iYIouAuaKJhFkIHjRJPiRwVSW3RBFhb6Hs0+oBoDx6URva2awkIjF8Uxqrf3mPhEMk/lxKvoeqUL3yvq042bhW+NQQvoSaiq1MwVmUifz1HEIPW6Z6zK5Y/rydP+Ej+LcXQ6jREjuZtRCbczP13fPMshbxVaHTriTamt+ZWsytW//ajuGY2755jWSvrM0tWdHNkaJMsGd71Be8qSX+2pH6PnAR3wxowXaqlZ20/Qk2X+XkXz6jyBX+UkP9kYQge8ObNiWqo8J/q5hmfQ8W5OcTpMzcvkBHKaQxIIpvGTeZyH01qjfE8pKDvQ4W6Du+hbaebgFOhot6GhltKOUR5XfI8jaz+1IX+7No+ydZ/ekLudt8/4Jr3hIXSw2/Ff+nn4BTrW7Sj3E/v0Zoa89iMOtLSGPG5qfF5SK0JHujUHKRU1fr//OU83FXktph52KkWD497uqpxGkd9SQ9K0dvuKXO5MA+ppqg2n+7aANIo8T0Ti9T8nG/I8EUk6RS4PUHOSFTn/mouQ4yRF4wN0iFk5Tvzeief1widpXeR54xZwEv/ZGv/D1FV0YhU17oepu0cdxily/ulowHlMSeV90Q+IOxJzfAxe5DRa0fgFHdxuiFn7+V8Spwwiz8Ri1BqX6llUGnl8Rwznc4Sidgwd2c6IqDc8PuhHUQ/fwvF9mbHMyTAsjSJsTueETkZBVv2AF219pIqVRDIIOWyIlURS/bA2Uo1z6KB2zPqyIVI59VkbqYIcohZYG6kCXNiscrpSU7nsAYtnsPzIyPm/0YXza2mk8tkilcChsZBGwZb9gOriJZVAp6hFFguOgMXGYzA/bnD+r3TRvM4Vxdqeznnb4XD+x3RxzK6MhR2nhNSDNAo7Tsls+TcErac+0zRy23SaigNvbeS+eSGWga3x34GSwKtmCD0VXU7ONLGnosupIdylzSrVV6GLDYIgCIIgCIIgCIIgCIIgCIIgCIIgCIIgCIIgyO/gf1sDggbPhRPyAAAAAElFTkSuQmCC;" parent="1" vertex="1">
          <mxGeometry x="680" y="170" width="70" height="70" as="geometry" />
        </mxCell>
        <mxCell id="xLYYazq6a6-ILcx5yCei-38" style="edgeStyle=orthogonalEdgeStyle;rounded=0;orthogonalLoop=1;jettySize=auto;html=1;exitX=1;exitY=0.25;exitDx=0;exitDy=0;" parent="1" source="xLYYazq6a6-ILcx5yCei-16" target="xLYYazq6a6-ILcx5yCei-37" edge="1">
          <mxGeometry relative="1" as="geometry">
            <mxPoint x="640" y="160" as="targetPoint" />
            <Array as="points">
              <mxPoint x="610" y="275" />
              <mxPoint x="610" y="205" />
            </Array>
          </mxGeometry>
        </mxCell>
        <mxCell id="xLYYazq6a6-ILcx5yCei-39" value="" style="group" parent="1" vertex="1" connectable="0">
          <mxGeometry x="260" y="390" width="210" height="60" as="geometry" />
        </mxCell>
        <mxCell id="xLYYazq6a6-ILcx5yCei-40" value="" style="group;fillColor=none;strokeColor=none;fillStyle=solid;container=0;" parent="xLYYazq6a6-ILcx5yCei-39" vertex="1" connectable="0">
          <mxGeometry width="210.00000000000003" height="60" as="geometry" />
        </mxCell>
        <mxCell id="xLYYazq6a6-ILcx5yCei-45" style="edgeStyle=orthogonalEdgeStyle;rounded=0;orthogonalLoop=1;jettySize=auto;html=1;exitX=0.5;exitY=0;exitDx=0;exitDy=0;" parent="xLYYazq6a6-ILcx5yCei-39" source="xLYYazq6a6-ILcx5yCei-41" edge="1">
          <mxGeometry relative="1" as="geometry">
            <mxPoint x="105" y="-70" as="targetPoint" />
          </mxGeometry>
        </mxCell>
        <mxCell id="xLYYazq6a6-ILcx5yCei-41" value="" style="rounded=1;whiteSpace=wrap;html=1;arcSize=50;fillColor=#CCE5FF;strokeColor=none;" parent="xLYYazq6a6-ILcx5yCei-39" vertex="1">
          <mxGeometry width="210.00000000000003" height="60" as="geometry" />
        </mxCell>
        <mxCell id="xLYYazq6a6-ILcx5yCei-42" value="" style="ellipse;whiteSpace=wrap;html=1;aspect=fixed;strokeColor=#0066CC;" parent="xLYYazq6a6-ILcx5yCei-39" vertex="1">
          <mxGeometry width="60" height="60" as="geometry" />
        </mxCell>
        <mxCell id="xLYYazq6a6-ILcx5yCei-43" value="" style="editableCssRules=.*;html=1;shape=image;verticalLabelPosition=bottom;labelBackgroundColor=#ffffff;verticalAlign=top;aspect=fixed;imageAspect=0;image=data:image/svg+xml,PHN2ZyB4bWxucz0iaHR0cDovL3d3dy53My5vcmcvMjAwMC9zdmciIHhtbG5zOnY9Imh0dHBzOi8vdmVjdGEuaW8vbmFubyIgd2lkdGg9IjM2NS40NjQ5OTY3NzA0MjQ5MyIgaGVpZ2h0PSIzNzkuMjIyOTk0NDYzNTc3OTUiIHZpZXdCb3g9IjAgMCA5Ni42OTU5OTkxNDU1MDc4MSAxMDAuMzM1OTk4NTM1MTU2MjUiPiYjeGE7PHN0eWxlIHR5cGU9InRleHQvY3NzIj4mI3hhOwkuc3Qwe2ZpbGw6IzQyODVmNDt9JiN4YTsJLnN0MXtmaWxsOiNhZWNiZmE7fSYjeGE7PC9zdHlsZT4mI3hhOwk8cGF0aCBjbGFzcz0ic3QwIiBkPSJNMjkuNzk0IDEwMC4zMzZMNDYuOTIgNTAuMTY4aDQ5Ljc3NnpNMCA5OS42NzFsMTIuOTc2LTQ5LjUwMkgyOS4yMkwxNi44OTcgOTIuMDU0eiIvPiYjeGE7CTxwYXRoIGNsYXNzPSJzdDEiIGQ9Ik0yOS43OTQgMEw0Ni45MiA1MC4xNjhoNDkuNzc2ek0wIC42NjZsMTIuOTc2IDQ5LjUwMkgyOS4yMkwxNi44OTcgOC4yODN6Ii8+JiN4YTs8L3N2Zz4=;" parent="xLYYazq6a6-ILcx5yCei-39" vertex="1">
          <mxGeometry x="22.10526315789474" y="20" width="20" height="20" as="geometry" />
        </mxCell>
        <mxCell id="xLYYazq6a6-ILcx5yCei-44" value="&lt;b&gt;customers-api&lt;/b&gt;" style="text;html=1;align=center;verticalAlign=middle;whiteSpace=wrap;rounded=0;fillColor=#CCE5FF;fontColor=#0066CC;" parent="xLYYazq6a6-ILcx5yCei-39" vertex="1">
          <mxGeometry x="77.36842105263159" y="15" width="110.5263157894737" height="30" as="geometry" />
        </mxCell>
        <mxCell id="xLYYazq6a6-ILcx5yCei-46" style="edgeStyle=orthogonalEdgeStyle;rounded=0;orthogonalLoop=1;jettySize=auto;html=1;exitX=0.75;exitY=1;exitDx=0;exitDy=0;entryX=0.75;entryY=0;entryDx=0;entryDy=0;" parent="1" source="xLYYazq6a6-ILcx5yCei-16" target="xLYYazq6a6-ILcx5yCei-41" edge="1">
          <mxGeometry relative="1" as="geometry" />
        </mxCell>
      </root>
    </mxGraphModel>
  </diagram>
</mxfile>
